<svg width="2500" height="350" viewBox="0 0 2500 350" fill="none" xmlns="http://www.w3.org/2000/svg">
<g clip-path="url(#clip0_16_15)">
<rect width="2500" height="350" fill="url(#paint0_linear_16_15)"/>
<path d="M-28.048 85L-38.8 -8.44H-27.792L-20.752 60.68C-20.5813 62.5573 -20.4107 64.52 -20.24 66.568C-20.0693 68.5307 -19.9413 70.408 -19.856 72.2C-19.6853 73.992 -19.6 75.4853 -19.6 76.68C-19.4293 75.4853 -19.3013 73.992 -19.216 72.2C-19.0453 70.408 -18.8747 68.5307 -18.704 66.568C-18.448 64.52 -18.192 62.5573 -17.936 60.68L-9.232 -8.44H2.672L10.608 60.68C10.864 62.5573 11.0773 64.52 11.248 66.568C11.504 68.5307 11.7173 70.408 11.888 72.2C12.144 73.992 12.3147 75.4853 12.4 76.68C12.4853 75.4853 12.5707 73.992 12.656 72.2C12.8267 70.408 12.9973 68.5307 13.168 66.568C13.424 64.52 13.6373 62.5573 13.808 60.68L21.104 -8.44H31.6L20.592 85H6.128L-1.808 14.6C-1.97867 12.6373 -2.192 10.7173 -2.448 8.84C-2.61867 6.96266 -2.78933 5.21333 -2.96 3.592C-3.13067 1.97066 -3.25867 0.647995 -3.344 -0.376007C-3.42933 0.647995 -3.6 1.97066 -3.856 3.592C-4.02667 5.21333 -4.19733 6.96266 -4.368 8.84C-4.53866 10.7173 -4.752 12.6373 -5.008 14.6L-13.584 85H-28.048ZM67.006 86.28C59.582 86.28 53.7367 84.4027 49.47 80.648C45.2033 76.808 43.07 71.6453 43.07 65.16C43.07 58.5893 45.2033 53.4267 49.47 49.672C53.7367 45.9173 59.4967 44.04 66.75 44.04H88.51V37C88.51 32.648 87.1873 29.32 84.542 27.016C81.982 24.6267 78.3127 23.432 73.534 23.432C69.3527 23.432 65.854 24.328 63.038 26.12C60.222 27.8267 58.6007 30.1733 58.174 33.16H46.654C47.422 27.1013 50.2807 22.28 55.23 18.696C60.1793 15.112 66.366 13.32 73.79 13.32C81.8967 13.32 88.2967 15.4107 92.99 19.592C97.6833 23.7733 100.03 29.448 100.03 36.616V85H88.766V71.56H86.846L88.766 69.64C88.766 74.76 86.7607 78.8133 82.75 81.8C78.8247 84.7867 73.5767 86.28 67.006 86.28ZM69.822 77.192C75.2833 77.192 79.7633 75.8267 83.262 73.096C86.7607 70.3653 88.51 66.8667 88.51 62.6V52.616H67.006C63.166 52.616 60.1367 53.6827 57.918 55.816C55.6993 57.9493 54.59 60.8507 54.59 64.52C54.59 68.4453 55.9127 71.56 58.558 73.864C61.2887 76.0827 65.0433 77.192 69.822 77.192ZM142.092 85L118.54 14.6H130.316L145.932 61.96C146.871 64.776 147.724 67.5067 148.492 70.152C149.26 72.712 149.815 74.7173 150.156 76.168C150.583 74.7173 151.18 72.712 151.948 70.152C152.716 67.5067 153.527 64.776 154.38 61.96L169.612 14.6H181.26L157.708 85H142.092ZM226.65 86.28C221.103 86.28 216.239 85.1707 212.058 82.952C207.962 80.7333 204.762 77.6187 202.458 73.608C200.239 69.512 199.13 64.776 199.13 59.4V40.2C199.13 34.7387 200.239 30.0027 202.458 25.992C204.762 21.9813 207.962 18.8667 212.058 16.648C216.239 14.4293 221.103 13.32 226.65 13.32C232.197 13.32 237.018 14.4293 241.114 16.648C245.295 18.8667 248.495 21.9813 250.714 25.992C253.018 30.0027 254.17 34.7387 254.17 40.2V52.616H210.394V59.4C210.394 64.9467 211.802 69.2133 214.618 72.2C217.434 75.1013 221.445 76.552 226.65 76.552C231.087 76.552 234.671 75.784 237.402 74.248C240.133 72.6267 241.797 70.2373 242.394 67.08H253.914C253.146 72.968 250.245 77.6613 245.21 81.16C240.261 84.5733 234.074 86.28 226.65 86.28ZM242.906 44.936V40.2C242.906 34.6533 241.498 30.3867 238.682 27.4C235.951 24.4133 231.941 22.92 226.65 22.92C221.445 22.92 217.434 24.4133 214.618 27.4C211.802 30.3867 210.394 34.6533 210.394 40.2V43.912H243.802L242.906 44.936ZM279.72 85V-8.44H291.24V74.504H333.48V85H279.72ZM374.006 86.28C366.582 86.28 360.737 84.4027 356.47 80.648C352.203 76.808 350.07 71.6453 350.07 65.16C350.07 58.5893 352.203 53.4267 356.47 49.672C360.737 45.9173 366.497 44.04 373.75 44.04H395.51V37C395.51 32.648 394.187 29.32 391.542 27.016C388.982 24.6267 385.313 23.432 380.534 23.432C376.353 23.432 372.854 24.328 370.038 26.12C367.222 27.8267 365.601 30.1733 365.174 33.16H353.654C354.422 27.1013 357.281 22.28 362.23 18.696C367.179 15.112 373.366 13.32 380.79 13.32C388.897 13.32 395.297 15.4107 399.99 19.592C404.683 23.7733 407.03 29.448 407.03 36.616V85H395.766V71.56H393.846L395.766 69.64C395.766 74.76 393.761 78.8133 389.75 81.8C385.825 84.7867 380.577 86.28 374.006 86.28ZM376.822 77.192C382.283 77.192 386.763 75.8267 390.262 73.096C393.761 70.3653 395.51 66.8667 395.51 62.6V52.616H374.006C370.166 52.616 367.137 53.6827 364.918 55.816C362.699 57.9493 361.59 60.8507 361.59 64.52C361.59 68.4453 362.913 71.56 365.558 73.864C368.289 76.0827 372.043 77.192 376.822 77.192ZM460.996 86.28C455.193 86.28 450.543 84.744 447.044 81.672C443.545 78.5147 441.796 74.248 441.796 68.872L444.1 71.56H441.796V85H430.276V-8.44H441.796V12.04L441.54 28.04H444.1L441.796 30.728C441.796 25.4373 443.545 21.2133 447.044 18.056C450.628 14.8987 455.279 13.32 460.996 13.32C468.079 13.32 473.753 15.6667 478.02 20.36C482.287 25.0533 484.42 31.4533 484.42 39.56V60.168C484.42 68.1893 482.287 74.5467 478.02 79.24C473.753 83.9333 468.079 86.28 460.996 86.28ZM457.156 76.296C462.02 76.296 465.86 74.8453 468.676 71.944C471.492 69.0427 472.9 64.8613 472.9 59.4V40.2C472.9 34.7387 471.492 30.5573 468.676 27.656C465.86 24.7547 462.02 23.304 457.156 23.304C452.463 23.304 448.708 24.7973 445.892 27.784C443.161 30.7707 441.796 34.9093 441.796 40.2V59.4C441.796 64.6907 443.161 68.8293 445.892 71.816C448.708 74.8027 452.463 76.296 457.156 76.296Z" fill="white" fill-opacity="0.6"/>
<path d="M509.952 213L499.2 119.56H510.208L517.248 188.68C517.419 190.557 517.589 192.52 517.76 194.568C517.931 196.531 518.059 198.408 518.144 200.2C518.315 201.992 518.4 203.485 518.4 204.68C518.571 203.485 518.699 201.992 518.784 200.2C518.955 198.408 519.125 196.531 519.296 194.568C519.552 192.52 519.808 190.557 520.064 188.68L528.768 119.56H540.672L548.608 188.68C548.864 190.557 549.077 192.52 549.248 194.568C549.504 196.531 549.717 198.408 549.888 200.2C550.144 201.992 550.315 203.485 550.4 204.68C550.485 203.485 550.571 201.992 550.656 200.2C550.827 198.408 550.997 196.531 551.168 194.568C551.424 192.52 551.637 190.557 551.808 188.68L559.104 119.56H569.6L558.592 213H544.128L536.192 142.6C536.021 140.637 535.808 138.717 535.552 136.84C535.381 134.963 535.211 133.213 535.04 131.592C534.869 129.971 534.741 128.648 534.656 127.624C534.571 128.648 534.4 129.971 534.144 131.592C533.973 133.213 533.803 134.963 533.632 136.84C533.461 138.717 533.248 140.637 532.992 142.6L524.416 213H509.952ZM605.006 214.28C597.582 214.28 591.737 212.403 587.47 208.648C583.203 204.808 581.07 199.645 581.07 193.16C581.07 186.589 583.203 181.427 587.47 177.672C591.737 173.917 597.497 172.04 604.75 172.04H626.51V165C626.51 160.648 625.187 157.32 622.542 155.016C619.982 152.627 616.313 151.432 611.534 151.432C607.353 151.432 603.854 152.328 601.038 154.12C598.222 155.827 596.601 158.173 596.174 161.16H584.654C585.422 155.101 588.281 150.28 593.23 146.696C598.179 143.112 604.366 141.32 611.79 141.32C619.897 141.32 626.297 143.411 630.99 147.592C635.683 151.773 638.03 157.448 638.03 164.616V213H626.766V199.56H624.846L626.766 197.64C626.766 202.76 624.761 206.813 620.75 209.8C616.825 212.787 611.577 214.28 605.006 214.28ZM607.822 205.192C613.283 205.192 617.763 203.827 621.262 201.096C624.761 198.365 626.51 194.867 626.51 190.6V180.616H605.006C601.166 180.616 598.137 181.683 595.918 183.816C593.699 185.949 592.59 188.851 592.59 192.52C592.59 196.445 593.913 199.56 596.558 201.864C599.289 204.083 603.043 205.192 607.822 205.192ZM680.092 213L656.54 142.6H668.316L683.932 189.96C684.871 192.776 685.724 195.507 686.492 198.152C687.26 200.712 687.815 202.717 688.156 204.168C688.583 202.717 689.18 200.712 689.948 198.152C690.716 195.507 691.527 192.776 692.38 189.96L707.612 142.6H719.26L695.708 213H680.092ZM764.65 214.28C759.103 214.28 754.239 213.171 750.058 210.952C745.962 208.733 742.762 205.619 740.458 201.608C738.239 197.512 737.13 192.776 737.13 187.4V168.2C737.13 162.739 738.239 158.003 740.458 153.992C742.762 149.981 745.962 146.867 750.058 144.648C754.239 142.429 759.103 141.32 764.65 141.32C770.197 141.32 775.018 142.429 779.114 144.648C783.295 146.867 786.495 149.981 788.714 153.992C791.018 158.003 792.17 162.739 792.17 168.2V180.616H748.394V187.4C748.394 192.947 749.802 197.213 752.618 200.2C755.434 203.101 759.445 204.552 764.65 204.552C769.087 204.552 772.671 203.784 775.402 202.248C778.133 200.627 779.797 198.237 780.394 195.08H791.914C791.146 200.968 788.245 205.661 783.21 209.16C778.261 212.573 772.074 214.28 764.65 214.28ZM780.906 172.936V168.2C780.906 162.653 779.498 158.387 776.682 155.4C773.951 152.413 769.941 150.92 764.65 150.92C759.445 150.92 755.434 152.413 752.618 155.4C749.802 158.387 748.394 162.653 748.394 168.2V171.912H781.802L780.906 172.936ZM817.72 213V119.56H829.24V202.504H871.48V213H817.72ZM912.006 214.28C904.582 214.28 898.737 212.403 894.47 208.648C890.203 204.808 888.07 199.645 888.07 193.16C888.07 186.589 890.203 181.427 894.47 177.672C898.737 173.917 904.497 172.04 911.75 172.04H933.51V165C933.51 160.648 932.187 157.32 929.542 155.016C926.982 152.627 923.313 151.432 918.534 151.432C914.353 151.432 910.854 152.328 908.038 154.12C905.222 155.827 903.601 158.173 903.174 161.16H891.654C892.422 155.101 895.281 150.28 900.23 146.696C905.179 143.112 911.366 141.32 918.79 141.32C926.897 141.32 933.297 143.411 937.99 147.592C942.683 151.773 945.03 157.448 945.03 164.616V213H933.766V199.56H931.846L933.766 197.64C933.766 202.76 931.761 206.813 927.75 209.8C923.825 212.787 918.577 214.28 912.006 214.28ZM914.822 205.192C920.283 205.192 924.763 203.827 928.262 201.096C931.761 198.365 933.51 194.867 933.51 190.6V180.616H912.006C908.166 180.616 905.137 181.683 902.918 183.816C900.699 185.949 899.59 188.851 899.59 192.52C899.59 196.445 900.913 199.56 903.558 201.864C906.289 204.083 910.043 205.192 914.822 205.192ZM998.996 214.28C993.193 214.28 988.543 212.744 985.044 209.672C981.545 206.515 979.796 202.248 979.796 196.872L982.1 199.56H979.796V213H968.276V119.56H979.796V140.04L979.54 156.04H982.1L979.796 158.728C979.796 153.437 981.545 149.213 985.044 146.056C988.628 142.899 993.279 141.32 998.996 141.32C1006.08 141.32 1011.75 143.667 1016.02 148.36C1020.29 153.053 1022.42 159.453 1022.42 167.56V188.168C1022.42 196.189 1020.29 202.547 1016.02 207.24C1011.75 211.933 1006.08 214.28 998.996 214.28ZM995.156 204.296C1000.02 204.296 1003.86 202.845 1006.68 199.944C1009.49 197.043 1010.9 192.861 1010.9 187.4V168.2C1010.9 162.739 1009.49 158.557 1006.68 155.656C1003.86 152.755 1000.02 151.304 995.156 151.304C990.463 151.304 986.708 152.797 983.892 155.784C981.161 158.771 979.796 162.909 979.796 168.2V187.4C979.796 192.691 981.161 196.829 983.892 199.816C986.708 202.803 990.463 204.296 995.156 204.296Z" fill="white" fill-opacity="0.6"/>
<path d="M1047.95 344L1037.2 250.56H1048.21L1055.25 319.68C1055.42 321.557 1055.59 323.52 1055.76 325.568C1055.93 327.531 1056.06 329.408 1056.14 331.2C1056.31 332.992 1056.4 334.485 1056.4 335.68C1056.57 334.485 1056.7 332.992 1056.78 331.2C1056.95 329.408 1057.13 327.531 1057.3 325.568C1057.55 323.52 1057.81 321.557 1058.06 319.68L1066.77 250.56H1078.67L1086.61 319.68C1086.86 321.557 1087.08 323.52 1087.25 325.568C1087.5 327.531 1087.72 329.408 1087.89 331.2C1088.14 332.992 1088.31 334.485 1088.4 335.68C1088.49 334.485 1088.57 332.992 1088.66 331.2C1088.83 329.408 1089 327.531 1089.17 325.568C1089.42 323.52 1089.64 321.557 1089.81 319.68L1097.1 250.56H1107.6L1096.59 344H1082.13L1074.19 273.6C1074.02 271.637 1073.81 269.717 1073.55 267.84C1073.38 265.963 1073.21 264.213 1073.04 262.592C1072.87 260.971 1072.74 259.648 1072.66 258.624C1072.57 259.648 1072.4 260.971 1072.14 262.592C1071.97 264.213 1071.8 265.963 1071.63 267.84C1071.46 269.717 1071.25 271.637 1070.99 273.6L1062.42 344H1047.95ZM1143.01 345.28C1135.58 345.28 1129.74 343.403 1125.47 339.648C1121.2 335.808 1119.07 330.645 1119.07 324.16C1119.07 317.589 1121.2 312.427 1125.47 308.672C1129.74 304.917 1135.5 303.04 1142.75 303.04H1164.51V296C1164.51 291.648 1163.19 288.32 1160.54 286.016C1157.98 283.627 1154.31 282.432 1149.53 282.432C1145.35 282.432 1141.85 283.328 1139.04 285.12C1136.22 286.827 1134.6 289.173 1134.17 292.16H1122.65C1123.42 286.101 1126.28 281.28 1131.23 277.696C1136.18 274.112 1142.37 272.32 1149.79 272.32C1157.9 272.32 1164.3 274.411 1168.99 278.592C1173.68 282.773 1176.03 288.448 1176.03 295.616V344H1164.77V330.56H1162.85L1164.77 328.64C1164.77 333.76 1162.76 337.813 1158.75 340.8C1154.82 343.787 1149.58 345.28 1143.01 345.28ZM1145.82 336.192C1151.28 336.192 1155.76 334.827 1159.26 332.096C1162.76 329.365 1164.51 325.867 1164.51 321.6V311.616H1143.01C1139.17 311.616 1136.14 312.683 1133.92 314.816C1131.7 316.949 1130.59 319.851 1130.59 323.52C1130.59 327.445 1131.91 330.56 1134.56 332.864C1137.29 335.083 1141.04 336.192 1145.82 336.192ZM1218.09 344L1194.54 273.6H1206.32L1221.93 320.96C1222.87 323.776 1223.72 326.507 1224.49 329.152C1225.26 331.712 1225.81 333.717 1226.16 335.168C1226.58 333.717 1227.18 331.712 1227.95 329.152C1228.72 326.507 1229.53 323.776 1230.38 320.96L1245.61 273.6H1257.26L1233.71 344H1218.09ZM1302.65 345.28C1297.1 345.28 1292.24 344.171 1288.06 341.952C1283.96 339.733 1280.76 336.619 1278.46 332.608C1276.24 328.512 1275.13 323.776 1275.13 318.4V299.2C1275.13 293.739 1276.24 289.003 1278.46 284.992C1280.76 280.981 1283.96 277.867 1288.06 275.648C1292.24 273.429 1297.1 272.32 1302.65 272.32C1308.2 272.32 1313.02 273.429 1317.11 275.648C1321.3 277.867 1324.5 280.981 1326.71 284.992C1329.02 289.003 1330.17 293.739 1330.17 299.2V311.616H1286.39V318.4C1286.39 323.947 1287.8 328.213 1290.62 331.2C1293.43 334.101 1297.44 335.552 1302.65 335.552C1307.09 335.552 1310.67 334.784 1313.4 333.248C1316.13 331.627 1317.8 329.237 1318.39 326.08H1329.91C1329.15 331.968 1326.24 336.661 1321.21 340.16C1316.26 343.573 1310.07 345.28 1302.65 345.28ZM1318.91 303.936V299.2C1318.91 293.653 1317.5 289.387 1314.68 286.4C1311.95 283.413 1307.94 281.92 1302.65 281.92C1297.44 281.92 1293.43 283.413 1290.62 286.4C1287.8 289.387 1286.39 293.653 1286.39 299.2V302.912H1319.8L1318.91 303.936ZM1355.72 344V250.56H1367.24V333.504H1409.48V344H1355.72ZM1450.01 345.28C1442.58 345.28 1436.74 343.403 1432.47 339.648C1428.2 335.808 1426.07 330.645 1426.07 324.16C1426.07 317.589 1428.2 312.427 1432.47 308.672C1436.74 304.917 1442.5 303.04 1449.75 303.04H1471.51V296C1471.51 291.648 1470.19 288.32 1467.54 286.016C1464.98 283.627 1461.31 282.432 1456.53 282.432C1452.35 282.432 1448.85 283.328 1446.04 285.12C1443.22 286.827 1441.6 289.173 1441.17 292.16H1429.65C1430.42 286.101 1433.28 281.28 1438.23 277.696C1443.18 274.112 1449.37 272.32 1456.79 272.32C1464.9 272.32 1471.3 274.411 1475.99 278.592C1480.68 282.773 1483.03 288.448 1483.03 295.616V344H1471.77V330.56H1469.85L1471.77 328.64C1471.77 333.76 1469.76 337.813 1465.75 340.8C1461.82 343.787 1456.58 345.28 1450.01 345.28ZM1452.82 336.192C1458.28 336.192 1462.76 334.827 1466.26 332.096C1469.76 329.365 1471.51 325.867 1471.51 321.6V311.616H1450.01C1446.17 311.616 1443.14 312.683 1440.92 314.816C1438.7 316.949 1437.59 319.851 1437.59 323.52C1437.59 327.445 1438.91 330.56 1441.56 332.864C1444.29 335.083 1448.04 336.192 1452.82 336.192ZM1537 345.28C1531.19 345.28 1526.54 343.744 1523.04 340.672C1519.55 337.515 1517.8 333.248 1517.8 327.872L1520.1 330.56H1517.8V344H1506.28V250.56H1517.8V271.04L1517.54 287.04H1520.1L1517.8 289.728C1517.8 284.437 1519.55 280.213 1523.04 277.056C1526.63 273.899 1531.28 272.32 1537 272.32C1544.08 272.32 1549.75 274.667 1554.02 279.36C1558.29 284.053 1560.42 290.453 1560.42 298.56V319.168C1560.42 327.189 1558.29 333.547 1554.02 338.24C1549.75 342.933 1544.08 345.28 1537 345.28ZM1533.16 335.296C1538.02 335.296 1541.86 333.845 1544.68 330.944C1547.49 328.043 1548.9 323.861 1548.9 318.4V299.2C1548.9 293.739 1547.49 289.557 1544.68 286.656C1541.86 283.755 1538.02 282.304 1533.16 282.304C1528.46 282.304 1524.71 283.797 1521.89 286.784C1519.16 289.771 1517.8 293.909 1517.8 299.2V318.4C1517.8 323.691 1519.16 327.829 1521.89 330.816C1524.71 333.803 1528.46 335.296 1533.16 335.296Z" fill="white" fill-opacity="0.6"/>
<path d="M2123.95 344L2113.2 250.56H2124.21L2131.25 319.68C2131.42 321.557 2131.59 323.52 2131.76 325.568C2131.93 327.531 2132.06 329.408 2132.14 331.2C2132.31 332.992 2132.4 334.485 2132.4 335.68C2132.57 334.485 2132.7 332.992 2132.78 331.2C2132.95 329.408 2133.13 327.531 2133.3 325.568C2133.55 323.52 2133.81 321.557 2134.06 319.68L2142.77 250.56H2154.67L2162.61 319.68C2162.86 321.557 2163.08 323.52 2163.25 325.568C2163.5 327.531 2163.72 329.408 2163.89 331.2C2164.14 332.992 2164.31 334.485 2164.4 335.68C2164.49 334.485 2164.57 332.992 2164.66 331.2C2164.83 329.408 2165 327.531 2165.17 325.568C2165.42 323.52 2165.64 321.557 2165.81 319.68L2173.1 250.56H2183.6L2172.59 344H2158.13L2150.19 273.6C2150.02 271.637 2149.81 269.717 2149.55 267.84C2149.38 265.963 2149.21 264.213 2149.04 262.592C2148.87 260.971 2148.74 259.648 2148.66 258.624C2148.57 259.648 2148.4 260.971 2148.14 262.592C2147.97 264.213 2147.8 265.963 2147.63 267.84C2147.46 269.717 2147.25 271.637 2146.99 273.6L2138.42 344H2123.95ZM2219.01 345.28C2211.58 345.28 2205.74 343.403 2201.47 339.648C2197.2 335.808 2195.07 330.645 2195.07 324.16C2195.07 317.589 2197.2 312.427 2201.47 308.672C2205.74 304.917 2211.5 303.04 2218.75 303.04H2240.51V296C2240.51 291.648 2239.19 288.32 2236.54 286.016C2233.98 283.627 2230.31 282.432 2225.53 282.432C2221.35 282.432 2217.85 283.328 2215.04 285.12C2212.22 286.827 2210.6 289.173 2210.17 292.16H2198.65C2199.42 286.101 2202.28 281.28 2207.23 277.696C2212.18 274.112 2218.37 272.32 2225.79 272.32C2233.9 272.32 2240.3 274.411 2244.99 278.592C2249.68 282.773 2252.03 288.448 2252.03 295.616V344H2240.77V330.56H2238.85L2240.77 328.64C2240.77 333.76 2238.76 337.813 2234.75 340.8C2230.82 343.787 2225.58 345.28 2219.01 345.28ZM2221.82 336.192C2227.28 336.192 2231.76 334.827 2235.26 332.096C2238.76 329.365 2240.51 325.867 2240.51 321.6V311.616H2219.01C2215.17 311.616 2212.14 312.683 2209.92 314.816C2207.7 316.949 2206.59 319.851 2206.59 323.52C2206.59 327.445 2207.91 330.56 2210.56 332.864C2213.29 335.083 2217.04 336.192 2221.82 336.192ZM2294.09 344L2270.54 273.6H2282.32L2297.93 320.96C2298.87 323.776 2299.72 326.507 2300.49 329.152C2301.26 331.712 2301.81 333.717 2302.16 335.168C2302.58 333.717 2303.18 331.712 2303.95 329.152C2304.72 326.507 2305.53 323.776 2306.38 320.96L2321.61 273.6H2333.26L2309.71 344H2294.09ZM2378.65 345.28C2373.1 345.28 2368.24 344.171 2364.06 341.952C2359.96 339.733 2356.76 336.619 2354.46 332.608C2352.24 328.512 2351.13 323.776 2351.13 318.4V299.2C2351.13 293.739 2352.24 289.003 2354.46 284.992C2356.76 280.981 2359.96 277.867 2364.06 275.648C2368.24 273.429 2373.1 272.32 2378.65 272.32C2384.2 272.32 2389.02 273.429 2393.11 275.648C2397.3 277.867 2400.5 280.981 2402.71 284.992C2405.02 289.003 2406.17 293.739 2406.17 299.2V311.616H2362.39V318.4C2362.39 323.947 2363.8 328.213 2366.62 331.2C2369.43 334.101 2373.44 335.552 2378.65 335.552C2383.09 335.552 2386.67 334.784 2389.4 333.248C2392.13 331.627 2393.8 329.237 2394.39 326.08H2405.91C2405.15 331.968 2402.24 336.661 2397.21 340.16C2392.26 343.573 2386.07 345.28 2378.65 345.28ZM2394.91 303.936V299.2C2394.91 293.653 2393.5 289.387 2390.68 286.4C2387.95 283.413 2383.94 281.92 2378.65 281.92C2373.44 281.92 2369.43 283.413 2366.62 286.4C2363.8 289.387 2362.39 293.653 2362.39 299.2V302.912H2395.8L2394.91 303.936ZM2431.72 344V250.56H2443.24V333.504H2485.48V344H2431.72ZM2526.01 345.28C2518.58 345.28 2512.74 343.403 2508.47 339.648C2504.2 335.808 2502.07 330.645 2502.07 324.16C2502.07 317.589 2504.2 312.427 2508.47 308.672C2512.74 304.917 2518.5 303.04 2525.75 303.04H2547.51V296C2547.51 291.648 2546.19 288.32 2543.54 286.016C2540.98 283.627 2537.31 282.432 2532.53 282.432C2528.35 282.432 2524.85 283.328 2522.04 285.12C2519.22 286.827 2517.6 289.173 2517.17 292.16H2505.65C2506.42 286.101 2509.28 281.28 2514.23 277.696C2519.18 274.112 2525.37 272.32 2532.79 272.32C2540.9 272.32 2547.3 274.411 2551.99 278.592C2556.68 282.773 2559.03 288.448 2559.03 295.616V344H2547.77V330.56H2545.85L2547.77 328.64C2547.77 333.76 2545.76 337.813 2541.75 340.8C2537.82 343.787 2532.58 345.28 2526.01 345.28ZM2528.82 336.192C2534.28 336.192 2538.76 334.827 2542.26 332.096C2545.76 329.365 2547.51 325.867 2547.51 321.6V311.616H2526.01C2522.17 311.616 2519.14 312.683 2516.92 314.816C2514.7 316.949 2513.59 319.851 2513.59 323.52C2513.59 327.445 2514.91 330.56 2517.56 332.864C2520.29 335.083 2524.04 336.192 2528.82 336.192ZM2613 345.28C2607.19 345.28 2602.54 343.744 2599.04 340.672C2595.55 337.515 2593.8 333.248 2593.8 327.872L2596.1 330.56H2593.8V344H2582.28V250.56H2593.8V271.04L2593.54 287.04H2596.1L2593.8 289.728C2593.8 284.437 2595.55 280.213 2599.04 277.056C2602.63 273.899 2607.28 272.32 2613 272.32C2620.08 272.32 2625.75 274.667 2630.02 279.36C2634.29 284.053 2636.42 290.453 2636.42 298.56V319.168C2636.42 327.189 2634.29 333.547 2630.02 338.24C2625.75 342.933 2620.08 345.28 2613 345.28ZM2609.16 335.296C2614.02 335.296 2617.86 333.845 2620.68 330.944C2623.49 328.043 2624.9 323.861 2624.9 318.4V299.2C2624.9 293.739 2623.49 289.557 2620.68 286.656C2617.86 283.755 2614.02 282.304 2609.16 282.304C2604.46 282.304 2600.71 283.797 2597.89 286.784C2595.16 289.771 2593.8 293.909 2593.8 299.2V318.4C2593.8 323.691 2595.16 327.829 2597.89 330.816C2600.71 333.803 2604.46 335.296 2609.16 335.296Z" fill="white" fill-opacity="0.6"/>
<path d="M1585.95 213L1575.2 119.56H1586.21L1593.25 188.68C1593.42 190.557 1593.59 192.52 1593.76 194.568C1593.93 196.531 1594.06 198.408 1594.14 200.2C1594.31 201.992 1594.4 203.485 1594.4 204.68C1594.57 203.485 1594.7 201.992 1594.78 200.2C1594.95 198.408 1595.13 196.531 1595.3 194.568C1595.55 192.52 1595.81 190.557 1596.06 188.68L1604.77 119.56H1616.67L1624.61 188.68C1624.86 190.557 1625.08 192.52 1625.25 194.568C1625.5 196.531 1625.72 198.408 1625.89 200.2C1626.14 201.992 1626.31 203.485 1626.4 204.68C1626.49 203.485 1626.57 201.992 1626.66 200.2C1626.83 198.408 1627 196.531 1627.17 194.568C1627.42 192.52 1627.64 190.557 1627.81 188.68L1635.1 119.56H1645.6L1634.59 213H1620.13L1612.19 142.6C1612.02 140.637 1611.81 138.717 1611.55 136.84C1611.38 134.963 1611.21 133.213 1611.04 131.592C1610.87 129.971 1610.74 128.648 1610.66 127.624C1610.57 128.648 1610.4 129.971 1610.14 131.592C1609.97 133.213 1609.8 134.963 1609.63 136.84C1609.46 138.717 1609.25 140.637 1608.99 142.6L1600.42 213H1585.95ZM1681.01 214.28C1673.58 214.28 1667.74 212.403 1663.47 208.648C1659.2 204.808 1657.07 199.645 1657.07 193.16C1657.07 186.589 1659.2 181.427 1663.47 177.672C1667.74 173.917 1673.5 172.04 1680.75 172.04H1702.51V165C1702.51 160.648 1701.19 157.32 1698.54 155.016C1695.98 152.627 1692.31 151.432 1687.53 151.432C1683.35 151.432 1679.85 152.328 1677.04 154.12C1674.22 155.827 1672.6 158.173 1672.17 161.16H1660.65C1661.42 155.101 1664.28 150.28 1669.23 146.696C1674.18 143.112 1680.37 141.32 1687.79 141.32C1695.9 141.32 1702.3 143.411 1706.99 147.592C1711.68 151.773 1714.03 157.448 1714.03 164.616V213H1702.77V199.56H1700.85L1702.77 197.64C1702.77 202.76 1700.76 206.813 1696.75 209.8C1692.82 212.787 1687.58 214.28 1681.01 214.28ZM1683.82 205.192C1689.28 205.192 1693.76 203.827 1697.26 201.096C1700.76 198.365 1702.51 194.867 1702.51 190.6V180.616H1681.01C1677.17 180.616 1674.14 181.683 1671.92 183.816C1669.7 185.949 1668.59 188.851 1668.59 192.52C1668.59 196.445 1669.91 199.56 1672.56 201.864C1675.29 204.083 1679.04 205.192 1683.82 205.192ZM1756.09 213L1732.54 142.6H1744.32L1759.93 189.96C1760.87 192.776 1761.72 195.507 1762.49 198.152C1763.26 200.712 1763.81 202.717 1764.16 204.168C1764.58 202.717 1765.18 200.712 1765.95 198.152C1766.72 195.507 1767.53 192.776 1768.38 189.96L1783.61 142.6H1795.26L1771.71 213H1756.09ZM1840.65 214.28C1835.1 214.28 1830.24 213.171 1826.06 210.952C1821.96 208.733 1818.76 205.619 1816.46 201.608C1814.24 197.512 1813.13 192.776 1813.13 187.4V168.2C1813.13 162.739 1814.24 158.003 1816.46 153.992C1818.76 149.981 1821.96 146.867 1826.06 144.648C1830.24 142.429 1835.1 141.32 1840.65 141.32C1846.2 141.32 1851.02 142.429 1855.11 144.648C1859.3 146.867 1862.5 149.981 1864.71 153.992C1867.02 158.003 1868.17 162.739 1868.17 168.2V180.616H1824.39V187.4C1824.39 192.947 1825.8 197.213 1828.62 200.2C1831.43 203.101 1835.44 204.552 1840.65 204.552C1845.09 204.552 1848.67 203.784 1851.4 202.248C1854.13 200.627 1855.8 198.237 1856.39 195.08H1867.91C1867.15 200.968 1864.24 205.661 1859.21 209.16C1854.26 212.573 1848.07 214.28 1840.65 214.28ZM1856.91 172.936V168.2C1856.91 162.653 1855.5 158.387 1852.68 155.4C1849.95 152.413 1845.94 150.92 1840.65 150.92C1835.44 150.92 1831.43 152.413 1828.62 155.4C1825.8 158.387 1824.39 162.653 1824.39 168.2V171.912H1857.8L1856.91 172.936ZM1893.72 213V119.56H1905.24V202.504H1947.48V213H1893.72ZM1988.01 214.28C1980.58 214.28 1974.74 212.403 1970.47 208.648C1966.2 204.808 1964.07 199.645 1964.07 193.16C1964.07 186.589 1966.2 181.427 1970.47 177.672C1974.74 173.917 1980.5 172.04 1987.75 172.04H2009.51V165C2009.51 160.648 2008.19 157.32 2005.54 155.016C2002.98 152.627 1999.31 151.432 1994.53 151.432C1990.35 151.432 1986.85 152.328 1984.04 154.12C1981.22 155.827 1979.6 158.173 1979.17 161.16H1967.65C1968.42 155.101 1971.28 150.28 1976.23 146.696C1981.18 143.112 1987.37 141.32 1994.79 141.32C2002.9 141.32 2009.3 143.411 2013.99 147.592C2018.68 151.773 2021.03 157.448 2021.03 164.616V213H2009.77V199.56H2007.85L2009.77 197.64C2009.77 202.76 2007.76 206.813 2003.75 209.8C1999.82 212.787 1994.58 214.28 1988.01 214.28ZM1990.82 205.192C1996.28 205.192 2000.76 203.827 2004.26 201.096C2007.76 198.365 2009.51 194.867 2009.51 190.6V180.616H1988.01C1984.17 180.616 1981.14 181.683 1978.92 183.816C1976.7 185.949 1975.59 188.851 1975.59 192.52C1975.59 196.445 1976.91 199.56 1979.56 201.864C1982.29 204.083 1986.04 205.192 1990.82 205.192ZM2075 214.28C2069.19 214.28 2064.54 212.744 2061.04 209.672C2057.55 206.515 2055.8 202.248 2055.8 196.872L2058.1 199.56H2055.8V213H2044.28V119.56H2055.8V140.04L2055.54 156.04H2058.1L2055.8 158.728C2055.8 153.437 2057.55 149.213 2061.04 146.056C2064.63 142.899 2069.28 141.32 2075 141.32C2082.08 141.32 2087.75 143.667 2092.02 148.36C2096.29 153.053 2098.42 159.453 2098.42 167.56V188.168C2098.42 196.189 2096.29 202.547 2092.02 207.24C2087.75 211.933 2082.08 214.28 2075 214.28ZM2071.16 204.296C2076.02 204.296 2079.86 202.845 2082.68 199.944C2085.49 197.043 2086.9 192.861 2086.9 187.4V168.2C2086.9 162.739 2085.49 158.557 2082.68 155.656C2079.86 152.755 2076.02 151.304 2071.16 151.304C2066.46 151.304 2062.71 152.797 2059.89 155.784C2057.16 158.771 2055.8 162.909 2055.8 168.2V187.4C2055.8 192.691 2057.16 196.829 2059.89 199.816C2062.71 202.803 2066.46 204.296 2071.16 204.296Z" fill="white" fill-opacity="0.6"/>
<path d="M1047.95 85L1037.2 -8.44H1048.21L1055.25 60.68C1055.42 62.5573 1055.59 64.52 1055.76 66.568C1055.93 68.5307 1056.06 70.408 1056.14 72.2C1056.31 73.992 1056.4 75.4853 1056.4 76.68C1056.57 75.4853 1056.7 73.992 1056.78 72.2C1056.95 70.408 1057.13 68.5307 1057.3 66.568C1057.55 64.52 1057.81 62.5573 1058.06 60.68L1066.77 -8.44H1078.67L1086.61 60.68C1086.86 62.5573 1087.08 64.52 1087.25 66.568C1087.5 68.5307 1087.72 70.408 1087.89 72.2C1088.14 73.992 1088.31 75.4853 1088.4 76.68C1088.49 75.4853 1088.57 73.992 1088.66 72.2C1088.83 70.408 1089 68.5307 1089.17 66.568C1089.42 64.52 1089.64 62.5573 1089.81 60.68L1097.1 -8.44H1107.6L1096.59 85H1082.13L1074.19 14.6C1074.02 12.6373 1073.81 10.7173 1073.55 8.84C1073.38 6.96266 1073.21 5.21333 1073.04 3.592C1072.87 1.97066 1072.74 0.647995 1072.66 -0.376007C1072.57 0.647995 1072.4 1.97066 1072.14 3.592C1071.97 5.21333 1071.8 6.96266 1071.63 8.84C1071.46 10.7173 1071.25 12.6373 1070.99 14.6L1062.42 85H1047.95ZM1143.01 86.28C1135.58 86.28 1129.74 84.4027 1125.47 80.648C1121.2 76.808 1119.07 71.6453 1119.07 65.16C1119.07 58.5893 1121.2 53.4267 1125.47 49.672C1129.74 45.9173 1135.5 44.04 1142.75 44.04H1164.51V37C1164.51 32.648 1163.19 29.32 1160.54 27.016C1157.98 24.6267 1154.31 23.432 1149.53 23.432C1145.35 23.432 1141.85 24.328 1139.04 26.12C1136.22 27.8267 1134.6 30.1733 1134.17 33.16H1122.65C1123.42 27.1013 1126.28 22.28 1131.23 18.696C1136.18 15.112 1142.37 13.32 1149.79 13.32C1157.9 13.32 1164.3 15.4107 1168.99 19.592C1173.68 23.7733 1176.03 29.448 1176.03 36.616V85H1164.77V71.56H1162.85L1164.77 69.64C1164.77 74.76 1162.76 78.8133 1158.75 81.8C1154.82 84.7867 1149.58 86.28 1143.01 86.28ZM1145.82 77.192C1151.28 77.192 1155.76 75.8267 1159.26 73.096C1162.76 70.3653 1164.51 66.8667 1164.51 62.6V52.616H1143.01C1139.17 52.616 1136.14 53.6827 1133.92 55.816C1131.7 57.9493 1130.59 60.8507 1130.59 64.52C1130.59 68.4453 1131.91 71.56 1134.56 73.864C1137.29 76.0827 1141.04 77.192 1145.82 77.192ZM1218.09 85L1194.54 14.6H1206.32L1221.93 61.96C1222.87 64.776 1223.72 67.5067 1224.49 70.152C1225.26 72.712 1225.81 74.7173 1226.16 76.168C1226.58 74.7173 1227.18 72.712 1227.95 70.152C1228.72 67.5067 1229.53 64.776 1230.38 61.96L1245.61 14.6H1257.26L1233.71 85H1218.09ZM1302.65 86.28C1297.1 86.28 1292.24 85.1707 1288.06 82.952C1283.96 80.7333 1280.76 77.6187 1278.46 73.608C1276.24 69.512 1275.13 64.776 1275.13 59.4V40.2C1275.13 34.7387 1276.24 30.0027 1278.46 25.992C1280.76 21.9813 1283.96 18.8667 1288.06 16.648C1292.24 14.4293 1297.1 13.32 1302.65 13.32C1308.2 13.32 1313.02 14.4293 1317.11 16.648C1321.3 18.8667 1324.5 21.9813 1326.71 25.992C1329.02 30.0027 1330.17 34.7387 1330.17 40.2V52.616H1286.39V59.4C1286.39 64.9467 1287.8 69.2133 1290.62 72.2C1293.43 75.1013 1297.44 76.552 1302.65 76.552C1307.09 76.552 1310.67 75.784 1313.4 74.248C1316.13 72.6267 1317.8 70.2373 1318.39 67.08H1329.91C1329.15 72.968 1326.24 77.6613 1321.21 81.16C1316.26 84.5733 1310.07 86.28 1302.65 86.28ZM1318.91 44.936V40.2C1318.91 34.6533 1317.5 30.3867 1314.68 27.4C1311.95 24.4133 1307.94 22.92 1302.65 22.92C1297.44 22.92 1293.43 24.4133 1290.62 27.4C1287.8 30.3867 1286.39 34.6533 1286.39 40.2V43.912H1319.8L1318.91 44.936ZM1355.72 85V-8.44H1367.24V74.504H1409.48V85H1355.72ZM1450.01 86.28C1442.58 86.28 1436.74 84.4027 1432.47 80.648C1428.2 76.808 1426.07 71.6453 1426.07 65.16C1426.07 58.5893 1428.2 53.4267 1432.47 49.672C1436.74 45.9173 1442.5 44.04 1449.75 44.04H1471.51V37C1471.51 32.648 1470.19 29.32 1467.54 27.016C1464.98 24.6267 1461.31 23.432 1456.53 23.432C1452.35 23.432 1448.85 24.328 1446.04 26.12C1443.22 27.8267 1441.6 30.1733 1441.17 33.16H1429.65C1430.42 27.1013 1433.28 22.28 1438.23 18.696C1443.18 15.112 1449.37 13.32 1456.79 13.32C1464.9 13.32 1471.3 15.4107 1475.99 19.592C1480.68 23.7733 1483.03 29.448 1483.03 36.616V85H1471.77V71.56H1469.85L1471.77 69.64C1471.77 74.76 1469.76 78.8133 1465.75 81.8C1461.82 84.7867 1456.58 86.28 1450.01 86.28ZM1452.82 77.192C1458.28 77.192 1462.76 75.8267 1466.26 73.096C1469.76 70.3653 1471.51 66.8667 1471.51 62.6V52.616H1450.01C1446.17 52.616 1443.14 53.6827 1440.92 55.816C1438.7 57.9493 1437.59 60.8507 1437.59 64.52C1437.59 68.4453 1438.91 71.56 1441.56 73.864C1444.29 76.0827 1448.04 77.192 1452.82 77.192ZM1537 86.28C1531.19 86.28 1526.54 84.744 1523.04 81.672C1519.55 78.5147 1517.8 74.248 1517.8 68.872L1520.1 71.56H1517.8V85H1506.28V-8.44H1517.8V12.04L1517.54 28.04H1520.1L1517.8 30.728C1517.8 25.4373 1519.55 21.2133 1523.04 18.056C1526.63 14.8987 1531.28 13.32 1537 13.32C1544.08 13.32 1549.75 15.6667 1554.02 20.36C1558.29 25.0533 1560.42 31.4533 1560.42 39.56V60.168C1560.42 68.1893 1558.29 74.5467 1554.02 79.24C1549.75 83.9333 1544.08 86.28 1537 86.28ZM1533.16 76.296C1538.02 76.296 1541.86 74.8453 1544.68 71.944C1547.49 69.0427 1548.9 64.8613 1548.9 59.4V40.2C1548.9 34.7387 1547.49 30.5573 1544.68 27.656C1541.86 24.7547 1538.02 23.304 1533.16 23.304C1528.46 23.304 1524.71 24.7973 1521.89 27.784C1519.16 30.7707 1517.8 34.9093 1517.8 40.2V59.4C1517.8 64.6907 1519.16 68.8293 1521.89 71.816C1524.71 74.8027 1528.46 76.296 1533.16 76.296Z" fill="white" fill-opacity="0.6"/>
<path d="M2123.95 85L2113.2 -8.44H2124.21L2131.25 60.68C2131.42 62.5573 2131.59 64.52 2131.76 66.568C2131.93 68.5307 2132.06 70.408 2132.14 72.2C2132.31 73.992 2132.4 75.4853 2132.4 76.68C2132.57 75.4853 2132.7 73.992 2132.78 72.2C2132.95 70.408 2133.13 68.5307 2133.3 66.568C2133.55 64.52 2133.81 62.5573 2134.06 60.68L2142.77 -8.44H2154.67L2162.61 60.68C2162.86 62.5573 2163.08 64.52 2163.25 66.568C2163.5 68.5307 2163.72 70.408 2163.89 72.2C2164.14 73.992 2164.31 75.4853 2164.4 76.68C2164.49 75.4853 2164.57 73.992 2164.66 72.2C2164.83 70.408 2165 68.5307 2165.17 66.568C2165.42 64.52 2165.64 62.5573 2165.81 60.68L2173.1 -8.44H2183.6L2172.59 85H2158.13L2150.19 14.6C2150.02 12.6373 2149.81 10.7173 2149.55 8.84C2149.38 6.96266 2149.21 5.21333 2149.04 3.592C2148.87 1.97066 2148.74 0.647995 2148.66 -0.376007C2148.57 0.647995 2148.4 1.97066 2148.14 3.592C2147.97 5.21333 2147.8 6.96266 2147.63 8.84C2147.46 10.7173 2147.25 12.6373 2146.99 14.6L2138.42 85H2123.95ZM2219.01 86.28C2211.58 86.28 2205.74 84.4027 2201.47 80.648C2197.2 76.808 2195.07 71.6453 2195.07 65.16C2195.07 58.5893 2197.2 53.4267 2201.47 49.672C2205.74 45.9173 2211.5 44.04 2218.75 44.04H2240.51V37C2240.51 32.648 2239.19 29.32 2236.54 27.016C2233.98 24.6267 2230.31 23.432 2225.53 23.432C2221.35 23.432 2217.85 24.328 2215.04 26.12C2212.22 27.8267 2210.6 30.1733 2210.17 33.16H2198.65C2199.42 27.1013 2202.28 22.28 2207.23 18.696C2212.18 15.112 2218.37 13.32 2225.79 13.32C2233.9 13.32 2240.3 15.4107 2244.99 19.592C2249.68 23.7733 2252.03 29.448 2252.03 36.616V85H2240.77V71.56H2238.85L2240.77 69.64C2240.77 74.76 2238.76 78.8133 2234.75 81.8C2230.82 84.7867 2225.58 86.28 2219.01 86.28ZM2221.82 77.192C2227.28 77.192 2231.76 75.8267 2235.26 73.096C2238.76 70.3653 2240.51 66.8667 2240.51 62.6V52.616H2219.01C2215.17 52.616 2212.14 53.6827 2209.92 55.816C2207.7 57.9493 2206.59 60.8507 2206.59 64.52C2206.59 68.4453 2207.91 71.56 2210.56 73.864C2213.29 76.0827 2217.04 77.192 2221.82 77.192ZM2294.09 85L2270.54 14.6H2282.32L2297.93 61.96C2298.87 64.776 2299.72 67.5067 2300.49 70.152C2301.26 72.712 2301.81 74.7173 2302.16 76.168C2302.58 74.7173 2303.18 72.712 2303.95 70.152C2304.72 67.5067 2305.53 64.776 2306.38 61.96L2321.61 14.6H2333.26L2309.71 85H2294.09ZM2378.65 86.28C2373.1 86.28 2368.24 85.1707 2364.06 82.952C2359.96 80.7333 2356.76 77.6187 2354.46 73.608C2352.24 69.512 2351.13 64.776 2351.13 59.4V40.2C2351.13 34.7387 2352.24 30.0027 2354.46 25.992C2356.76 21.9813 2359.96 18.8667 2364.06 16.648C2368.24 14.4293 2373.1 13.32 2378.65 13.32C2384.2 13.32 2389.02 14.4293 2393.11 16.648C2397.3 18.8667 2400.5 21.9813 2402.71 25.992C2405.02 30.0027 2406.17 34.7387 2406.17 40.2V52.616H2362.39V59.4C2362.39 64.9467 2363.8 69.2133 2366.62 72.2C2369.43 75.1013 2373.44 76.552 2378.65 76.552C2383.09 76.552 2386.67 75.784 2389.4 74.248C2392.13 72.6267 2393.8 70.2373 2394.39 67.08H2405.91C2405.15 72.968 2402.24 77.6613 2397.21 81.16C2392.26 84.5733 2386.07 86.28 2378.65 86.28ZM2394.91 44.936V40.2C2394.91 34.6533 2393.5 30.3867 2390.68 27.4C2387.95 24.4133 2383.94 22.92 2378.65 22.92C2373.44 22.92 2369.43 24.4133 2366.62 27.4C2363.8 30.3867 2362.39 34.6533 2362.39 40.2V43.912H2395.8L2394.91 44.936ZM2431.72 85V-8.44H2443.24V74.504H2485.48V85H2431.72ZM2526.01 86.28C2518.58 86.28 2512.74 84.4027 2508.47 80.648C2504.2 76.808 2502.07 71.6453 2502.07 65.16C2502.07 58.5893 2504.2 53.4267 2508.47 49.672C2512.74 45.9173 2518.5 44.04 2525.75 44.04H2547.51V37C2547.51 32.648 2546.19 29.32 2543.54 27.016C2540.98 24.6267 2537.31 23.432 2532.53 23.432C2528.35 23.432 2524.85 24.328 2522.04 26.12C2519.22 27.8267 2517.6 30.1733 2517.17 33.16H2505.65C2506.42 27.1013 2509.28 22.28 2514.23 18.696C2519.18 15.112 2525.37 13.32 2532.79 13.32C2540.9 13.32 2547.3 15.4107 2551.99 19.592C2556.68 23.7733 2559.03 29.448 2559.03 36.616V85H2547.77V71.56H2545.85L2547.77 69.64C2547.77 74.76 2545.76 78.8133 2541.75 81.8C2537.82 84.7867 2532.58 86.28 2526.01 86.28ZM2528.82 77.192C2534.28 77.192 2538.76 75.8267 2542.26 73.096C2545.76 70.3653 2547.51 66.8667 2547.51 62.6V52.616H2526.01C2522.17 52.616 2519.14 53.6827 2516.92 55.816C2514.7 57.9493 2513.59 60.8507 2513.59 64.52C2513.59 68.4453 2514.91 71.56 2517.56 73.864C2520.29 76.0827 2524.04 77.192 2528.82 77.192ZM2613 86.28C2607.19 86.28 2602.54 84.744 2599.04 81.672C2595.55 78.5147 2593.8 74.248 2593.8 68.872L2596.1 71.56H2593.8V85H2582.28V-8.44H2593.8V12.04L2593.54 28.04H2596.1L2593.8 30.728C2593.8 25.4373 2595.55 21.2133 2599.04 18.056C2602.63 14.8987 2607.28 13.32 2613 13.32C2620.08 13.32 2625.75 15.6667 2630.02 20.36C2634.29 25.0533 2636.42 31.4533 2636.42 39.56V60.168C2636.42 68.1893 2634.29 74.5467 2630.02 79.24C2625.75 83.9333 2620.08 86.28 2613 86.28ZM2609.16 76.296C2614.02 76.296 2617.86 74.8453 2620.68 71.944C2623.49 69.0427 2624.9 64.8613 2624.9 59.4V40.2C2624.9 34.7387 2623.49 30.5573 2620.68 27.656C2617.86 24.7547 2614.02 23.304 2609.16 23.304C2604.46 23.304 2600.71 24.7973 2597.89 27.784C2595.16 30.7707 2593.8 34.9093 2593.8 40.2V59.4C2593.8 64.6907 2595.16 68.8293 2597.89 71.816C2600.71 74.8027 2604.46 76.296 2609.16 76.296Z" fill="white" fill-opacity="0.6"/>
<path d="M-28.048 344L-38.8 250.56H-27.792L-20.752 319.68C-20.5813 321.557 -20.4107 323.52 -20.24 325.568C-20.0693 327.531 -19.9413 329.408 -19.856 331.2C-19.6853 332.992 -19.6 334.485 -19.6 335.68C-19.4293 334.485 -19.3013 332.992 -19.216 331.2C-19.0453 329.408 -18.8747 327.531 -18.704 325.568C-18.448 323.52 -18.192 321.557 -17.936 319.68L-9.232 250.56H2.672L10.608 319.68C10.864 321.557 11.0773 323.52 11.248 325.568C11.504 327.531 11.7173 329.408 11.888 331.2C12.144 332.992 12.3147 334.485 12.4 335.68C12.4853 334.485 12.5707 332.992 12.656 331.2C12.8267 329.408 12.9973 327.531 13.168 325.568C13.424 323.52 13.6373 321.557 13.808 319.68L21.104 250.56H31.6L20.592 344H6.128L-1.808 273.6C-1.97867 271.637 -2.192 269.717 -2.448 267.84C-2.61867 265.963 -2.78933 264.213 -2.96 262.592C-3.13067 260.971 -3.25867 259.648 -3.344 258.624C-3.42933 259.648 -3.6 260.971 -3.856 262.592C-4.02667 264.213 -4.19733 265.963 -4.368 267.84C-4.53866 269.717 -4.752 271.637 -5.008 273.6L-13.584 344H-28.048ZM67.006 345.28C59.582 345.28 53.7367 343.403 49.47 339.648C45.2033 335.808 43.07 330.645 43.07 324.16C43.07 317.589 45.2033 312.427 49.47 308.672C53.7367 304.917 59.4967 303.04 66.75 303.04H88.51V296C88.51 291.648 87.1873 288.32 84.542 286.016C81.982 283.627 78.3127 282.432 73.534 282.432C69.3527 282.432 65.854 283.328 63.038 285.12C60.222 286.827 58.6007 289.173 58.174 292.16H46.654C47.422 286.101 50.2807 281.28 55.23 277.696C60.1793 274.112 66.366 272.32 73.79 272.32C81.8967 272.32 88.2967 274.411 92.99 278.592C97.6833 282.773 100.03 288.448 100.03 295.616V344H88.766V330.56H86.846L88.766 328.64C88.766 333.76 86.7607 337.813 82.75 340.8C78.8247 343.787 73.5767 345.28 67.006 345.28ZM69.822 336.192C75.2833 336.192 79.7633 334.827 83.262 332.096C86.7607 329.365 88.51 325.867 88.51 321.6V311.616H67.006C63.166 311.616 60.1367 312.683 57.918 314.816C55.6993 316.949 54.59 319.851 54.59 323.52C54.59 327.445 55.9127 330.56 58.558 332.864C61.2887 335.083 65.0433 336.192 69.822 336.192ZM142.092 344L118.54 273.6H130.316L145.932 320.96C146.871 323.776 147.724 326.507 148.492 329.152C149.26 331.712 149.815 333.717 150.156 335.168C150.583 333.717 151.18 331.712 151.948 329.152C152.716 326.507 153.527 323.776 154.38 320.96L169.612 273.6H181.26L157.708 344H142.092ZM226.65 345.28C221.103 345.28 216.239 344.171 212.058 341.952C207.962 339.733 204.762 336.619 202.458 332.608C200.239 328.512 199.13 323.776 199.13 318.4V299.2C199.13 293.739 200.239 289.003 202.458 284.992C204.762 280.981 207.962 277.867 212.058 275.648C216.239 273.429 221.103 272.32 226.65 272.32C232.197 272.32 237.018 273.429 241.114 275.648C245.295 277.867 248.495 280.981 250.714 284.992C253.018 289.003 254.17 293.739 254.17 299.2V311.616H210.394V318.4C210.394 323.947 211.802 328.213 214.618 331.2C217.434 334.101 221.445 335.552 226.65 335.552C231.087 335.552 234.671 334.784 237.402 333.248C240.133 331.627 241.797 329.237 242.394 326.08H253.914C253.146 331.968 250.245 336.661 245.21 340.16C240.261 343.573 234.074 345.28 226.65 345.28ZM242.906 303.936V299.2C242.906 293.653 241.498 289.387 238.682 286.4C235.951 283.413 231.941 281.92 226.65 281.92C221.445 281.92 217.434 283.413 214.618 286.4C211.802 289.387 210.394 293.653 210.394 299.2V302.912H243.802L242.906 303.936ZM279.72 344V250.56H291.24V333.504H333.48V344H279.72ZM374.006 345.28C366.582 345.28 360.737 343.403 356.47 339.648C352.203 335.808 350.07 330.645 350.07 324.16C350.07 317.589 352.203 312.427 356.47 308.672C360.737 304.917 366.497 303.04 373.75 303.04H395.51V296C395.51 291.648 394.187 288.32 391.542 286.016C388.982 283.627 385.313 282.432 380.534 282.432C376.353 282.432 372.854 283.328 370.038 285.12C367.222 286.827 365.601 289.173 365.174 292.16H353.654C354.422 286.101 357.281 281.28 362.23 277.696C367.179 274.112 373.366 272.32 380.79 272.32C388.897 272.32 395.297 274.411 399.99 278.592C404.683 282.773 407.03 288.448 407.03 295.616V344H395.766V330.56H393.846L395.766 328.64C395.766 333.76 393.761 337.813 389.75 340.8C385.825 343.787 380.577 345.28 374.006 345.28ZM376.822 336.192C382.283 336.192 386.763 334.827 390.262 332.096C393.761 329.365 395.51 325.867 395.51 321.6V311.616H374.006C370.166 311.616 367.137 312.683 364.918 314.816C362.699 316.949 361.59 319.851 361.59 323.52C361.59 327.445 362.913 330.56 365.558 332.864C368.289 335.083 372.043 336.192 376.822 336.192ZM460.996 345.28C455.193 345.28 450.543 343.744 447.044 340.672C443.545 337.515 441.796 333.248 441.796 327.872L444.1 330.56H441.796V344H430.276V250.56H441.796V271.04L441.54 287.04H444.1L441.796 289.728C441.796 284.437 443.545 280.213 447.044 277.056C450.628 273.899 455.279 272.32 460.996 272.32C468.079 272.32 473.753 274.667 478.02 279.36C482.287 284.053 484.42 290.453 484.42 298.56V319.168C484.42 327.189 482.287 333.547 478.02 338.24C473.753 342.933 468.079 345.28 460.996 345.28ZM457.156 335.296C462.02 335.296 465.86 333.845 468.676 330.944C471.492 328.043 472.9 323.861 472.9 318.4V299.2C472.9 293.739 471.492 289.557 468.676 286.656C465.86 283.755 462.02 282.304 457.156 282.304C452.463 282.304 448.708 283.797 445.892 286.784C443.161 289.771 441.796 293.909 441.796 299.2V318.4C441.796 323.691 443.161 327.829 445.892 330.816C448.708 333.803 452.463 335.296 457.156 335.296Z" fill="white" fill-opacity="0.6"/>
<path d="M509.952 82L499.2 -11.44H510.208L517.248 57.68C517.419 59.5573 517.589 61.52 517.76 63.568C517.931 65.5307 518.059 67.408 518.144 69.2C518.315 70.992 518.4 72.4853 518.4 73.68C518.571 72.4853 518.699 70.992 518.784 69.2C518.955 67.408 519.125 65.5307 519.296 63.568C519.552 61.52 519.808 59.5573 520.064 57.68L528.768 -11.44H540.672L548.608 57.68C548.864 59.5573 549.077 61.52 549.248 63.568C549.504 65.5307 549.717 67.408 549.888 69.2C550.144 70.992 550.315 72.4853 550.4 73.68C550.485 72.4853 550.571 70.992 550.656 69.2C550.827 67.408 550.997 65.5307 551.168 63.568C551.424 61.52 551.637 59.5573 551.808 57.68L559.104 -11.44H569.6L558.592 82H544.128L536.192 11.6C536.021 9.63733 535.808 7.71733 535.552 5.84C535.381 3.96266 535.211 2.21333 535.04 0.591995C534.869 -1.02934 534.741 -2.35201 534.656 -3.37601C534.571 -2.35201 534.4 -1.02934 534.144 0.591995C533.973 2.21333 533.803 3.96266 533.632 5.84C533.461 7.71733 533.248 9.63733 532.992 11.6L524.416 82H509.952ZM605.006 83.28C597.582 83.28 591.737 81.4027 587.47 77.648C583.203 73.808 581.07 68.6453 581.07 62.16C581.07 55.5893 583.203 50.4267 587.47 46.672C591.737 42.9173 597.497 41.04 604.75 41.04H626.51V34C626.51 29.648 625.187 26.32 622.542 24.016C619.982 21.6267 616.313 20.432 611.534 20.432C607.353 20.432 603.854 21.328 601.038 23.12C598.222 24.8267 596.601 27.1733 596.174 30.16H584.654C585.422 24.1013 588.281 19.28 593.23 15.696C598.179 12.112 604.366 10.32 611.79 10.32C619.897 10.32 626.297 12.4107 630.99 16.592C635.683 20.7733 638.03 26.448 638.03 33.616V82H626.766V68.56H624.846L626.766 66.64C626.766 71.76 624.761 75.8133 620.75 78.8C616.825 81.7867 611.577 83.28 605.006 83.28ZM607.822 74.192C613.283 74.192 617.763 72.8267 621.262 70.096C624.761 67.3653 626.51 63.8667 626.51 59.6V49.616H605.006C601.166 49.616 598.137 50.6827 595.918 52.816C593.699 54.9493 592.59 57.8507 592.59 61.52C592.59 65.4453 593.913 68.56 596.558 70.864C599.289 73.0827 603.043 74.192 607.822 74.192ZM680.092 82L656.54 11.6H668.316L683.932 58.96C684.871 61.776 685.724 64.5067 686.492 67.152C687.26 69.712 687.815 71.7173 688.156 73.168C688.583 71.7173 689.18 69.712 689.948 67.152C690.716 64.5067 691.527 61.776 692.38 58.96L707.612 11.6H719.26L695.708 82H680.092ZM764.65 83.28C759.103 83.28 754.239 82.1707 750.058 79.952C745.962 77.7333 742.762 74.6187 740.458 70.608C738.239 66.512 737.13 61.776 737.13 56.4V37.2C737.13 31.7387 738.239 27.0027 740.458 22.992C742.762 18.9813 745.962 15.8667 750.058 13.648C754.239 11.4293 759.103 10.32 764.65 10.32C770.197 10.32 775.018 11.4293 779.114 13.648C783.295 15.8667 786.495 18.9813 788.714 22.992C791.018 27.0027 792.17 31.7387 792.17 37.2V49.616H748.394V56.4C748.394 61.9467 749.802 66.2133 752.618 69.2C755.434 72.1013 759.445 73.552 764.65 73.552C769.087 73.552 772.671 72.784 775.402 71.248C778.133 69.6267 779.797 67.2373 780.394 64.08H791.914C791.146 69.968 788.245 74.6613 783.21 78.16C778.261 81.5733 772.074 83.28 764.65 83.28ZM780.906 41.936V37.2C780.906 31.6533 779.498 27.3867 776.682 24.4C773.951 21.4133 769.941 19.92 764.65 19.92C759.445 19.92 755.434 21.4133 752.618 24.4C749.802 27.3867 748.394 31.6533 748.394 37.2V40.912H781.802L780.906 41.936ZM817.72 82V-11.44H829.24V71.504H871.48V82H817.72ZM912.006 83.28C904.582 83.28 898.737 81.4027 894.47 77.648C890.203 73.808 888.07 68.6453 888.07 62.16C888.07 55.5893 890.203 50.4267 894.47 46.672C898.737 42.9173 904.497 41.04 911.75 41.04H933.51V34C933.51 29.648 932.187 26.32 929.542 24.016C926.982 21.6267 923.313 20.432 918.534 20.432C914.353 20.432 910.854 21.328 908.038 23.12C905.222 24.8267 903.601 27.1733 903.174 30.16H891.654C892.422 24.1013 895.281 19.28 900.23 15.696C905.179 12.112 911.366 10.32 918.79 10.32C926.897 10.32 933.297 12.4107 937.99 16.592C942.683 20.7733 945.03 26.448 945.03 33.616V82H933.766V68.56H931.846L933.766 66.64C933.766 71.76 931.761 75.8133 927.75 78.8C923.825 81.7867 918.577 83.28 912.006 83.28ZM914.822 74.192C920.283 74.192 924.763 72.8267 928.262 70.096C931.761 67.3653 933.51 63.8667 933.51 59.6V49.616H912.006C908.166 49.616 905.137 50.6827 902.918 52.816C900.699 54.9493 899.59 57.8507 899.59 61.52C899.59 65.4453 900.913 68.56 903.558 70.864C906.289 73.0827 910.043 74.192 914.822 74.192ZM998.996 83.28C993.193 83.28 988.543 81.744 985.044 78.672C981.545 75.5147 979.796 71.248 979.796 65.872L982.1 68.56H979.796V82H968.276V-11.44H979.796V9.03999L979.54 25.04H982.1L979.796 27.728C979.796 22.4373 981.545 18.2133 985.044 15.056C988.628 11.8987 993.279 10.32 998.996 10.32C1006.08 10.32 1011.75 12.6667 1016.02 17.36C1020.29 22.0533 1022.42 28.4533 1022.42 36.56V57.168C1022.42 65.1893 1020.29 71.5467 1016.02 76.24C1011.75 80.9333 1006.08 83.28 998.996 83.28ZM995.156 73.296C1000.02 73.296 1003.86 71.8453 1006.68 68.944C1009.49 66.0427 1010.9 61.8613 1010.9 56.4V37.2C1010.9 31.7387 1009.49 27.5573 1006.68 24.656C1003.86 21.7547 1000.02 20.304 995.156 20.304C990.463 20.304 986.708 21.7973 983.892 24.784C981.161 27.7707 979.796 31.9093 979.796 37.2V56.4C979.796 61.6907 981.161 65.8293 983.892 68.816C986.708 71.8027 990.463 73.296 995.156 73.296Z" fill="#52FF00"/>
<path d="M1047.95 213L1037.2 119.56H1048.21L1055.25 188.68C1055.42 190.557 1055.59 192.52 1055.76 194.568C1055.93 196.531 1056.06 198.408 1056.14 200.2C1056.31 201.992 1056.4 203.485 1056.4 204.68C1056.57 203.485 1056.7 201.992 1056.78 200.2C1056.95 198.408 1057.13 196.531 1057.3 194.568C1057.55 192.52 1057.81 190.557 1058.06 188.68L1066.77 119.56H1078.67L1086.61 188.68C1086.86 190.557 1087.08 192.52 1087.25 194.568C1087.5 196.531 1087.72 198.408 1087.89 200.2C1088.14 201.992 1088.31 203.485 1088.4 204.68C1088.49 203.485 1088.57 201.992 1088.66 200.2C1088.83 198.408 1089 196.531 1089.17 194.568C1089.42 192.52 1089.64 190.557 1089.81 188.68L1097.1 119.56H1107.6L1096.59 213H1082.13L1074.19 142.6C1074.02 140.637 1073.81 138.717 1073.55 136.84C1073.38 134.963 1073.21 133.213 1073.04 131.592C1072.87 129.971 1072.74 128.648 1072.66 127.624C1072.57 128.648 1072.4 129.971 1072.14 131.592C1071.97 133.213 1071.8 134.963 1071.63 136.84C1071.46 138.717 1071.25 140.637 1070.99 142.6L1062.42 213H1047.95ZM1143.01 214.28C1135.58 214.28 1129.74 212.403 1125.47 208.648C1121.2 204.808 1119.07 199.645 1119.07 193.16C1119.07 186.589 1121.2 181.427 1125.47 177.672C1129.74 173.917 1135.5 172.04 1142.75 172.04H1164.51V165C1164.51 160.648 1163.19 157.32 1160.54 155.016C1157.98 152.627 1154.31 151.432 1149.53 151.432C1145.35 151.432 1141.85 152.328 1139.04 154.12C1136.22 155.827 1134.6 158.173 1134.17 161.16H1122.65C1123.42 155.101 1126.28 150.28 1131.23 146.696C1136.18 143.112 1142.37 141.32 1149.79 141.32C1157.9 141.32 1164.3 143.411 1168.99 147.592C1173.68 151.773 1176.03 157.448 1176.03 164.616V213H1164.77V199.56H1162.85L1164.77 197.64C1164.77 202.76 1162.76 206.813 1158.75 209.8C1154.82 212.787 1149.58 214.28 1143.01 214.28ZM1145.82 205.192C1151.28 205.192 1155.76 203.827 1159.26 201.096C1162.76 198.365 1164.51 194.867 1164.51 190.6V180.616H1143.01C1139.17 180.616 1136.14 181.683 1133.92 183.816C1131.7 185.949 1130.59 188.851 1130.59 192.52C1130.59 196.445 1131.91 199.56 1134.56 201.864C1137.29 204.083 1141.04 205.192 1145.82 205.192ZM1218.09 213L1194.54 142.6H1206.32L1221.93 189.96C1222.87 192.776 1223.72 195.507 1224.49 198.152C1225.26 200.712 1225.81 202.717 1226.16 204.168C1226.58 202.717 1227.18 200.712 1227.95 198.152C1228.72 195.507 1229.53 192.776 1230.38 189.96L1245.61 142.6H1257.26L1233.71 213H1218.09ZM1302.65 214.28C1297.1 214.28 1292.24 213.171 1288.06 210.952C1283.96 208.733 1280.76 205.619 1278.46 201.608C1276.24 197.512 1275.13 192.776 1275.13 187.4V168.2C1275.13 162.739 1276.24 158.003 1278.46 153.992C1280.76 149.981 1283.96 146.867 1288.06 144.648C1292.24 142.429 1297.1 141.32 1302.65 141.32C1308.2 141.32 1313.02 142.429 1317.11 144.648C1321.3 146.867 1324.5 149.981 1326.71 153.992C1329.02 158.003 1330.17 162.739 1330.17 168.2V180.616H1286.39V187.4C1286.39 192.947 1287.8 197.213 1290.62 200.2C1293.43 203.101 1297.44 204.552 1302.65 204.552C1307.09 204.552 1310.67 203.784 1313.4 202.248C1316.13 200.627 1317.8 198.237 1318.39 195.08H1329.91C1329.15 200.968 1326.24 205.661 1321.21 209.16C1316.26 212.573 1310.07 214.28 1302.65 214.28ZM1318.91 172.936V168.2C1318.91 162.653 1317.5 158.387 1314.68 155.4C1311.95 152.413 1307.94 150.92 1302.65 150.92C1297.44 150.92 1293.43 152.413 1290.62 155.4C1287.8 158.387 1286.39 162.653 1286.39 168.2V171.912H1319.8L1318.91 172.936ZM1355.72 213V119.56H1367.24V202.504H1409.48V213H1355.72ZM1450.01 214.28C1442.58 214.28 1436.74 212.403 1432.47 208.648C1428.2 204.808 1426.07 199.645 1426.07 193.16C1426.07 186.589 1428.2 181.427 1432.47 177.672C1436.74 173.917 1442.5 172.04 1449.75 172.04H1471.51V165C1471.51 160.648 1470.19 157.32 1467.54 155.016C1464.98 152.627 1461.31 151.432 1456.53 151.432C1452.35 151.432 1448.85 152.328 1446.04 154.12C1443.22 155.827 1441.6 158.173 1441.17 161.16H1429.65C1430.42 155.101 1433.28 150.28 1438.23 146.696C1443.18 143.112 1449.37 141.32 1456.79 141.32C1464.9 141.32 1471.3 143.411 1475.99 147.592C1480.68 151.773 1483.03 157.448 1483.03 164.616V213H1471.77V199.56H1469.85L1471.77 197.64C1471.77 202.76 1469.76 206.813 1465.75 209.8C1461.82 212.787 1456.58 214.28 1450.01 214.28ZM1452.82 205.192C1458.28 205.192 1462.76 203.827 1466.26 201.096C1469.76 198.365 1471.51 194.867 1471.51 190.6V180.616H1450.01C1446.17 180.616 1443.14 181.683 1440.92 183.816C1438.7 185.949 1437.59 188.851 1437.59 192.52C1437.59 196.445 1438.91 199.56 1441.56 201.864C1444.29 204.083 1448.04 205.192 1452.82 205.192ZM1537 214.28C1531.19 214.28 1526.54 212.744 1523.04 209.672C1519.55 206.515 1517.8 202.248 1517.8 196.872L1520.1 199.56H1517.8V213H1506.28V119.56H1517.8V140.04L1517.54 156.04H1520.1L1517.8 158.728C1517.8 153.437 1519.55 149.213 1523.04 146.056C1526.63 142.899 1531.28 141.32 1537 141.32C1544.08 141.32 1549.75 143.667 1554.02 148.36C1558.29 153.053 1560.42 159.453 1560.42 167.56V188.168C1560.42 196.189 1558.29 202.547 1554.02 207.24C1549.75 211.933 1544.08 214.28 1537 214.28ZM1533.16 204.296C1538.02 204.296 1541.86 202.845 1544.68 199.944C1547.49 197.043 1548.9 192.861 1548.9 187.4V168.2C1548.9 162.739 1547.49 158.557 1544.68 155.656C1541.86 152.755 1538.02 151.304 1533.16 151.304C1528.46 151.304 1524.71 152.797 1521.89 155.784C1519.16 158.771 1517.8 162.909 1517.8 168.2V187.4C1517.8 192.691 1519.16 196.829 1521.89 199.816C1524.71 202.803 1528.46 204.296 1533.16 204.296Z" fill="#52FF00"/>
<path d="M1585.95 344L1575.2 250.56H1586.21L1593.25 319.68C1593.42 321.557 1593.59 323.52 1593.76 325.568C1593.93 327.531 1594.06 329.408 1594.14 331.2C1594.31 332.992 1594.4 334.485 1594.4 335.68C1594.57 334.485 1594.7 332.992 1594.78 331.2C1594.95 329.408 1595.13 327.531 1595.3 325.568C1595.55 323.52 1595.81 321.557 1596.06 319.68L1604.77 250.56H1616.67L1624.61 319.68C1624.86 321.557 1625.08 323.52 1625.25 325.568C1625.5 327.531 1625.72 329.408 1625.89 331.2C1626.14 332.992 1626.31 334.485 1626.4 335.68C1626.49 334.485 1626.57 332.992 1626.66 331.2C1626.83 329.408 1627 327.531 1627.17 325.568C1627.42 323.52 1627.64 321.557 1627.81 319.68L1635.1 250.56H1645.6L1634.59 344H1620.13L1612.19 273.6C1612.02 271.637 1611.81 269.717 1611.55 267.84C1611.38 265.963 1611.21 264.213 1611.04 262.592C1610.87 260.971 1610.74 259.648 1610.66 258.624C1610.57 259.648 1610.4 260.971 1610.14 262.592C1609.97 264.213 1609.8 265.963 1609.63 267.84C1609.46 269.717 1609.25 271.637 1608.99 273.6L1600.42 344H1585.95ZM1681.01 345.28C1673.58 345.28 1667.74 343.403 1663.47 339.648C1659.2 335.808 1657.07 330.645 1657.07 324.16C1657.07 317.589 1659.2 312.427 1663.47 308.672C1667.74 304.917 1673.5 303.04 1680.75 303.04H1702.51V296C1702.51 291.648 1701.19 288.32 1698.54 286.016C1695.98 283.627 1692.31 282.432 1687.53 282.432C1683.35 282.432 1679.85 283.328 1677.04 285.12C1674.22 286.827 1672.6 289.173 1672.17 292.16H1660.65C1661.42 286.101 1664.28 281.28 1669.23 277.696C1674.18 274.112 1680.37 272.32 1687.79 272.32C1695.9 272.32 1702.3 274.411 1706.99 278.592C1711.68 282.773 1714.03 288.448 1714.03 295.616V344H1702.77V330.56H1700.85L1702.77 328.64C1702.77 333.76 1700.76 337.813 1696.75 340.8C1692.82 343.787 1687.58 345.28 1681.01 345.28ZM1683.82 336.192C1689.28 336.192 1693.76 334.827 1697.26 332.096C1700.76 329.365 1702.51 325.867 1702.51 321.6V311.616H1681.01C1677.17 311.616 1674.14 312.683 1671.92 314.816C1669.7 316.949 1668.59 319.851 1668.59 323.52C1668.59 327.445 1669.91 330.56 1672.56 332.864C1675.29 335.083 1679.04 336.192 1683.82 336.192ZM1756.09 344L1732.54 273.6H1744.32L1759.93 320.96C1760.87 323.776 1761.72 326.507 1762.49 329.152C1763.26 331.712 1763.81 333.717 1764.16 335.168C1764.58 333.717 1765.18 331.712 1765.95 329.152C1766.72 326.507 1767.53 323.776 1768.38 320.96L1783.61 273.6H1795.26L1771.71 344H1756.09ZM1840.65 345.28C1835.1 345.28 1830.24 344.171 1826.06 341.952C1821.96 339.733 1818.76 336.619 1816.46 332.608C1814.24 328.512 1813.13 323.776 1813.13 318.4V299.2C1813.13 293.739 1814.24 289.003 1816.46 284.992C1818.76 280.981 1821.96 277.867 1826.06 275.648C1830.24 273.429 1835.1 272.32 1840.65 272.32C1846.2 272.32 1851.02 273.429 1855.11 275.648C1859.3 277.867 1862.5 280.981 1864.71 284.992C1867.02 289.003 1868.17 293.739 1868.17 299.2V311.616H1824.39V318.4C1824.39 323.947 1825.8 328.213 1828.62 331.2C1831.43 334.101 1835.44 335.552 1840.65 335.552C1845.09 335.552 1848.67 334.784 1851.4 333.248C1854.13 331.627 1855.8 329.237 1856.39 326.08H1867.91C1867.15 331.968 1864.24 336.661 1859.21 340.16C1854.26 343.573 1848.07 345.28 1840.65 345.28ZM1856.91 303.936V299.2C1856.91 293.653 1855.5 289.387 1852.68 286.4C1849.95 283.413 1845.94 281.92 1840.65 281.92C1835.44 281.92 1831.43 283.413 1828.62 286.4C1825.8 289.387 1824.39 293.653 1824.39 299.2V302.912H1857.8L1856.91 303.936ZM1893.72 344V250.56H1905.24V333.504H1947.48V344H1893.72ZM1988.01 345.28C1980.58 345.28 1974.74 343.403 1970.47 339.648C1966.2 335.808 1964.07 330.645 1964.07 324.16C1964.07 317.589 1966.2 312.427 1970.47 308.672C1974.74 304.917 1980.5 303.04 1987.75 303.04H2009.51V296C2009.51 291.648 2008.19 288.32 2005.54 286.016C2002.98 283.627 1999.31 282.432 1994.53 282.432C1990.35 282.432 1986.85 283.328 1984.04 285.12C1981.22 286.827 1979.6 289.173 1979.17 292.16H1967.65C1968.42 286.101 1971.28 281.28 1976.23 277.696C1981.18 274.112 1987.37 272.32 1994.79 272.32C2002.9 272.32 2009.3 274.411 2013.99 278.592C2018.68 282.773 2021.03 288.448 2021.03 295.616V344H2009.77V330.56H2007.85L2009.77 328.64C2009.77 333.76 2007.76 337.813 2003.75 340.8C1999.82 343.787 1994.58 345.28 1988.01 345.28ZM1990.82 336.192C1996.28 336.192 2000.76 334.827 2004.26 332.096C2007.76 329.365 2009.51 325.867 2009.51 321.6V311.616H1988.01C1984.17 311.616 1981.14 312.683 1978.92 314.816C1976.7 316.949 1975.59 319.851 1975.59 323.52C1975.59 327.445 1976.91 330.56 1979.56 332.864C1982.29 335.083 1986.04 336.192 1990.82 336.192ZM2075 345.28C2069.19 345.28 2064.54 343.744 2061.04 340.672C2057.55 337.515 2055.8 333.248 2055.8 327.872L2058.1 330.56H2055.8V344H2044.28V250.56H2055.8V271.04L2055.54 287.04H2058.1L2055.8 289.728C2055.8 284.437 2057.55 280.213 2061.04 277.056C2064.63 273.899 2069.28 272.32 2075 272.32C2082.08 272.32 2087.75 274.667 2092.02 279.36C2096.29 284.053 2098.42 290.453 2098.42 298.56V319.168C2098.42 327.189 2096.29 333.547 2092.02 338.24C2087.75 342.933 2082.08 345.28 2075 345.28ZM2071.16 335.296C2076.02 335.296 2079.86 333.845 2082.68 330.944C2085.49 328.043 2086.9 323.861 2086.9 318.4V299.2C2086.9 293.739 2085.49 289.557 2082.68 286.656C2079.86 283.755 2076.02 282.304 2071.16 282.304C2066.46 282.304 2062.71 283.797 2059.89 286.784C2057.16 289.771 2055.8 293.909 2055.8 299.2V318.4C2055.8 323.691 2057.16 327.829 2059.89 330.816C2062.71 333.803 2066.46 335.296 2071.16 335.296Z" fill="#52FF00"/>
<path d="M2123.95 213L2113.2 119.56H2124.21L2131.25 188.68C2131.42 190.557 2131.59 192.52 2131.76 194.568C2131.93 196.531 2132.06 198.408 2132.14 200.2C2132.31 201.992 2132.4 203.485 2132.4 204.68C2132.57 203.485 2132.7 201.992 2132.78 200.2C2132.95 198.408 2133.13 196.531 2133.3 194.568C2133.55 192.52 2133.81 190.557 2134.06 188.68L2142.77 119.56H2154.67L2162.61 188.68C2162.86 190.557 2163.08 192.52 2163.25 194.568C2163.5 196.531 2163.72 198.408 2163.89 200.2C2164.14 201.992 2164.31 203.485 2164.4 204.68C2164.49 203.485 2164.57 201.992 2164.66 200.2C2164.83 198.408 2165 196.531 2165.17 194.568C2165.42 192.52 2165.64 190.557 2165.81 188.68L2173.1 119.56H2183.6L2172.59 213H2158.13L2150.19 142.6C2150.02 140.637 2149.81 138.717 2149.55 136.84C2149.38 134.963 2149.21 133.213 2149.04 131.592C2148.87 129.971 2148.74 128.648 2148.66 127.624C2148.57 128.648 2148.4 129.971 2148.14 131.592C2147.97 133.213 2147.8 134.963 2147.63 136.84C2147.46 138.717 2147.25 140.637 2146.99 142.6L2138.42 213H2123.95ZM2219.01 214.28C2211.58 214.28 2205.74 212.403 2201.47 208.648C2197.2 204.808 2195.07 199.645 2195.07 193.16C2195.07 186.589 2197.2 181.427 2201.47 177.672C2205.74 173.917 2211.5 172.04 2218.75 172.04H2240.51V165C2240.51 160.648 2239.19 157.32 2236.54 155.016C2233.98 152.627 2230.31 151.432 2225.53 151.432C2221.35 151.432 2217.85 152.328 2215.04 154.12C2212.22 155.827 2210.6 158.173 2210.17 161.16H2198.65C2199.42 155.101 2202.28 150.28 2207.23 146.696C2212.18 143.112 2218.37 141.32 2225.79 141.32C2233.9 141.32 2240.3 143.411 2244.99 147.592C2249.68 151.773 2252.03 157.448 2252.03 164.616V213H2240.77V199.56H2238.85L2240.77 197.64C2240.77 202.76 2238.76 206.813 2234.75 209.8C2230.82 212.787 2225.58 214.28 2219.01 214.28ZM2221.82 205.192C2227.28 205.192 2231.76 203.827 2235.26 201.096C2238.76 198.365 2240.51 194.867 2240.51 190.6V180.616H2219.01C2215.17 180.616 2212.14 181.683 2209.92 183.816C2207.7 185.949 2206.59 188.851 2206.59 192.52C2206.59 196.445 2207.91 199.56 2210.56 201.864C2213.29 204.083 2217.04 205.192 2221.82 205.192ZM2294.09 213L2270.54 142.6H2282.32L2297.93 189.96C2298.87 192.776 2299.72 195.507 2300.49 198.152C2301.26 200.712 2301.81 202.717 2302.16 204.168C2302.58 202.717 2303.18 200.712 2303.95 198.152C2304.72 195.507 2305.53 192.776 2306.38 189.96L2321.61 142.6H2333.26L2309.71 213H2294.09ZM2378.65 214.28C2373.1 214.28 2368.24 213.171 2364.06 210.952C2359.96 208.733 2356.76 205.619 2354.46 201.608C2352.24 197.512 2351.13 192.776 2351.13 187.4V168.2C2351.13 162.739 2352.24 158.003 2354.46 153.992C2356.76 149.981 2359.96 146.867 2364.06 144.648C2368.24 142.429 2373.1 141.32 2378.65 141.32C2384.2 141.32 2389.02 142.429 2393.11 144.648C2397.3 146.867 2400.5 149.981 2402.71 153.992C2405.02 158.003 2406.17 162.739 2406.17 168.2V180.616H2362.39V187.4C2362.39 192.947 2363.8 197.213 2366.62 200.2C2369.43 203.101 2373.44 204.552 2378.65 204.552C2383.09 204.552 2386.67 203.784 2389.4 202.248C2392.13 200.627 2393.8 198.237 2394.39 195.08H2405.91C2405.15 200.968 2402.24 205.661 2397.21 209.16C2392.26 212.573 2386.07 214.28 2378.65 214.28ZM2394.91 172.936V168.2C2394.91 162.653 2393.5 158.387 2390.68 155.4C2387.95 152.413 2383.94 150.92 2378.65 150.92C2373.44 150.92 2369.43 152.413 2366.62 155.4C2363.8 158.387 2362.39 162.653 2362.39 168.2V171.912H2395.8L2394.91 172.936ZM2431.72 213V119.56H2443.24V202.504H2485.48V213H2431.72ZM2526.01 214.28C2518.58 214.28 2512.74 212.403 2508.47 208.648C2504.2 204.808 2502.07 199.645 2502.07 193.16C2502.07 186.589 2504.2 181.427 2508.47 177.672C2512.74 173.917 2518.5 172.04 2525.75 172.04H2547.51V165C2547.51 160.648 2546.19 157.32 2543.54 155.016C2540.98 152.627 2537.31 151.432 2532.53 151.432C2528.35 151.432 2524.85 152.328 2522.04 154.12C2519.22 155.827 2517.6 158.173 2517.17 161.16H2505.65C2506.42 155.101 2509.28 150.28 2514.23 146.696C2519.18 143.112 2525.37 141.32 2532.79 141.32C2540.9 141.32 2547.3 143.411 2551.99 147.592C2556.68 151.773 2559.03 157.448 2559.03 164.616V213H2547.77V199.56H2545.85L2547.77 197.64C2547.77 202.76 2545.76 206.813 2541.75 209.8C2537.82 212.787 2532.58 214.28 2526.01 214.28ZM2528.82 205.192C2534.28 205.192 2538.76 203.827 2542.26 201.096C2545.76 198.365 2547.51 194.867 2547.51 190.6V180.616H2526.01C2522.17 180.616 2519.14 181.683 2516.92 183.816C2514.7 185.949 2513.59 188.851 2513.59 192.52C2513.59 196.445 2514.91 199.56 2517.56 201.864C2520.29 204.083 2524.04 205.192 2528.82 205.192ZM2613 214.28C2607.19 214.28 2602.54 212.744 2599.04 209.672C2595.55 206.515 2593.8 202.248 2593.8 196.872L2596.1 199.56H2593.8V213H2582.28V119.56H2593.8V140.04L2593.54 156.04H2596.1L2593.8 158.728C2593.8 153.437 2595.55 149.213 2599.04 146.056C2602.63 142.899 2607.28 141.32 2613 141.32C2620.08 141.32 2625.75 143.667 2630.02 148.36C2634.29 153.053 2636.42 159.453 2636.42 167.56V188.168C2636.42 196.189 2634.29 202.547 2630.02 207.24C2625.75 211.933 2620.08 214.28 2613 214.28ZM2609.16 204.296C2614.02 204.296 2617.86 202.845 2620.68 199.944C2623.49 197.043 2624.9 192.861 2624.9 187.4V168.2C2624.9 162.739 2623.49 158.557 2620.68 155.656C2617.86 152.755 2614.02 151.304 2609.16 151.304C2604.46 151.304 2600.71 152.797 2597.89 155.784C2595.16 158.771 2593.8 162.909 2593.8 168.2V187.4C2593.8 192.691 2595.16 196.829 2597.89 199.816C2600.71 202.803 2604.46 204.296 2609.16 204.296Z" fill="#52FF00"/>
<path d="M1585.95 82L1575.2 -11.44H1586.21L1593.25 57.68C1593.42 59.5573 1593.59 61.52 1593.76 63.568C1593.93 65.5307 1594.06 67.408 1594.14 69.2C1594.31 70.992 1594.4 72.4853 1594.4 73.68C1594.57 72.4853 1594.7 70.992 1594.78 69.2C1594.95 67.408 1595.13 65.5307 1595.3 63.568C1595.55 61.52 1595.81 59.5573 1596.06 57.68L1604.77 -11.44H1616.67L1624.61 57.68C1624.86 59.5573 1625.08 61.52 1625.25 63.568C1625.5 65.5307 1625.72 67.408 1625.89 69.2C1626.14 70.992 1626.31 72.4853 1626.4 73.68C1626.49 72.4853 1626.57 70.992 1626.66 69.2C1626.83 67.408 1627 65.5307 1627.17 63.568C1627.42 61.52 1627.64 59.5573 1627.81 57.68L1635.1 -11.44H1645.6L1634.59 82H1620.13L1612.19 11.6C1612.02 9.63733 1611.81 7.71733 1611.55 5.84C1611.38 3.96266 1611.21 2.21333 1611.04 0.591995C1610.87 -1.02934 1610.74 -2.35201 1610.66 -3.37601C1610.57 -2.35201 1610.4 -1.02934 1610.14 0.591995C1609.97 2.21333 1609.8 3.96266 1609.63 5.84C1609.46 7.71733 1609.25 9.63733 1608.99 11.6L1600.42 82H1585.95ZM1681.01 83.28C1673.58 83.28 1667.74 81.4027 1663.47 77.648C1659.2 73.808 1657.07 68.6453 1657.07 62.16C1657.07 55.5893 1659.2 50.4267 1663.47 46.672C1667.74 42.9173 1673.5 41.04 1680.75 41.04H1702.51V34C1702.51 29.648 1701.19 26.32 1698.54 24.016C1695.98 21.6267 1692.31 20.432 1687.53 20.432C1683.35 20.432 1679.85 21.328 1677.04 23.12C1674.22 24.8267 1672.6 27.1733 1672.17 30.16H1660.65C1661.42 24.1013 1664.28 19.28 1669.23 15.696C1674.18 12.112 1680.37 10.32 1687.79 10.32C1695.9 10.32 1702.3 12.4107 1706.99 16.592C1711.68 20.7733 1714.03 26.448 1714.03 33.616V82H1702.77V68.56H1700.85L1702.77 66.64C1702.77 71.76 1700.76 75.8133 1696.75 78.8C1692.82 81.7867 1687.58 83.28 1681.01 83.28ZM1683.82 74.192C1689.28 74.192 1693.76 72.8267 1697.26 70.096C1700.76 67.3653 1702.51 63.8667 1702.51 59.6V49.616H1681.01C1677.17 49.616 1674.14 50.6827 1671.92 52.816C1669.7 54.9493 1668.59 57.8507 1668.59 61.52C1668.59 65.4453 1669.91 68.56 1672.56 70.864C1675.29 73.0827 1679.04 74.192 1683.82 74.192ZM1756.09 82L1732.54 11.6H1744.32L1759.93 58.96C1760.87 61.776 1761.72 64.5067 1762.49 67.152C1763.26 69.712 1763.81 71.7173 1764.16 73.168C1764.58 71.7173 1765.18 69.712 1765.95 67.152C1766.72 64.5067 1767.53 61.776 1768.38 58.96L1783.61 11.6H1795.26L1771.71 82H1756.09ZM1840.65 83.28C1835.1 83.28 1830.24 82.1707 1826.06 79.952C1821.96 77.7333 1818.76 74.6187 1816.46 70.608C1814.24 66.512 1813.13 61.776 1813.13 56.4V37.2C1813.13 31.7387 1814.24 27.0027 1816.46 22.992C1818.76 18.9813 1821.96 15.8667 1826.06 13.648C1830.24 11.4293 1835.1 10.32 1840.65 10.32C1846.2 10.32 1851.02 11.4293 1855.11 13.648C1859.3 15.8667 1862.5 18.9813 1864.71 22.992C1867.02 27.0027 1868.17 31.7387 1868.17 37.2V49.616H1824.39V56.4C1824.39 61.9467 1825.8 66.2133 1828.62 69.2C1831.43 72.1013 1835.44 73.552 1840.65 73.552C1845.09 73.552 1848.67 72.784 1851.4 71.248C1854.13 69.6267 1855.8 67.2373 1856.39 64.08H1867.91C1867.15 69.968 1864.24 74.6613 1859.21 78.16C1854.26 81.5733 1848.07 83.28 1840.65 83.28ZM1856.91 41.936V37.2C1856.91 31.6533 1855.5 27.3867 1852.68 24.4C1849.95 21.4133 1845.94 19.92 1840.65 19.92C1835.44 19.92 1831.43 21.4133 1828.62 24.4C1825.8 27.3867 1824.39 31.6533 1824.39 37.2V40.912H1857.8L1856.91 41.936ZM1893.72 82V-11.44H1905.24V71.504H1947.48V82H1893.72ZM1988.01 83.28C1980.58 83.28 1974.74 81.4027 1970.47 77.648C1966.2 73.808 1964.07 68.6453 1964.07 62.16C1964.07 55.5893 1966.2 50.4267 1970.47 46.672C1974.74 42.9173 1980.5 41.04 1987.75 41.04H2009.51V34C2009.51 29.648 2008.19 26.32 2005.54 24.016C2002.98 21.6267 1999.31 20.432 1994.53 20.432C1990.35 20.432 1986.85 21.328 1984.04 23.12C1981.22 24.8267 1979.6 27.1733 1979.17 30.16H1967.65C1968.42 24.1013 1971.28 19.28 1976.23 15.696C1981.18 12.112 1987.37 10.32 1994.79 10.32C2002.9 10.32 2009.3 12.4107 2013.99 16.592C2018.68 20.7733 2021.03 26.448 2021.03 33.616V82H2009.77V68.56H2007.85L2009.77 66.64C2009.77 71.76 2007.76 75.8133 2003.75 78.8C1999.82 81.7867 1994.58 83.28 1988.01 83.28ZM1990.82 74.192C1996.28 74.192 2000.76 72.8267 2004.26 70.096C2007.76 67.3653 2009.51 63.8667 2009.51 59.6V49.616H1988.01C1984.17 49.616 1981.14 50.6827 1978.92 52.816C1976.7 54.9493 1975.59 57.8507 1975.59 61.52C1975.59 65.4453 1976.91 68.56 1979.56 70.864C1982.29 73.0827 1986.04 74.192 1990.82 74.192ZM2075 83.28C2069.19 83.28 2064.54 81.744 2061.04 78.672C2057.55 75.5147 2055.8 71.248 2055.8 65.872L2058.1 68.56H2055.8V82H2044.28V-11.44H2055.8V9.03999L2055.54 25.04H2058.1L2055.8 27.728C2055.8 22.4373 2057.55 18.2133 2061.04 15.056C2064.63 11.8987 2069.28 10.32 2075 10.32C2082.08 10.32 2087.75 12.6667 2092.02 17.36C2096.29 22.0533 2098.42 28.4533 2098.42 36.56V57.168C2098.42 65.1893 2096.29 71.5467 2092.02 76.24C2087.75 80.9333 2082.08 83.28 2075 83.28ZM2071.16 73.296C2076.02 73.296 2079.86 71.8453 2082.68 68.944C2085.49 66.0427 2086.9 61.8613 2086.9 56.4V37.2C2086.9 31.7387 2085.49 27.5573 2082.68 24.656C2079.86 21.7547 2076.02 20.304 2071.16 20.304C2066.46 20.304 2062.71 21.7973 2059.89 24.784C2057.16 27.7707 2055.8 31.9093 2055.8 37.2V56.4C2055.8 61.6907 2057.16 65.8293 2059.89 68.816C2062.71 71.8027 2066.46 73.296 2071.16 73.296Z" fill="#52FF00"/>
<path d="M-28.048 213L-38.8 119.56H-27.792L-20.752 188.68C-20.5813 190.557 -20.4107 192.52 -20.24 194.568C-20.0693 196.531 -19.9413 198.408 -19.856 200.2C-19.6853 201.992 -19.6 203.485 -19.6 204.68C-19.4293 203.485 -19.3013 201.992 -19.216 200.2C-19.0453 198.408 -18.8747 196.531 -18.704 194.568C-18.448 192.52 -18.192 190.557 -17.936 188.68L-9.232 119.56H2.672L10.608 188.68C10.864 190.557 11.0773 192.52 11.248 194.568C11.504 196.531 11.7173 198.408 11.888 200.2C12.144 201.992 12.3147 203.485 12.4 204.68C12.4853 203.485 12.5707 201.992 12.656 200.2C12.8267 198.408 12.9973 196.531 13.168 194.568C13.424 192.52 13.6373 190.557 13.808 188.68L21.104 119.56H31.6L20.592 213H6.128L-1.808 142.6C-1.97867 140.637 -2.192 138.717 -2.448 136.84C-2.61867 134.963 -2.78933 133.213 -2.96 131.592C-3.13067 129.971 -3.25867 128.648 -3.344 127.624C-3.42933 128.648 -3.6 129.971 -3.856 131.592C-4.02667 133.213 -4.19733 134.963 -4.368 136.84C-4.53866 138.717 -4.752 140.637 -5.008 142.6L-13.584 213H-28.048ZM67.006 214.28C59.582 214.28 53.7367 212.403 49.47 208.648C45.2033 204.808 43.07 199.645 43.07 193.16C43.07 186.589 45.2033 181.427 49.47 177.672C53.7367 173.917 59.4967 172.04 66.75 172.04H88.51V165C88.51 160.648 87.1873 157.32 84.542 155.016C81.982 152.627 78.3127 151.432 73.534 151.432C69.3527 151.432 65.854 152.328 63.038 154.12C60.222 155.827 58.6007 158.173 58.174 161.16H46.654C47.422 155.101 50.2807 150.28 55.23 146.696C60.1793 143.112 66.366 141.32 73.79 141.32C81.8967 141.32 88.2967 143.411 92.99 147.592C97.6833 151.773 100.03 157.448 100.03 164.616V213H88.766V199.56H86.846L88.766 197.64C88.766 202.76 86.7607 206.813 82.75 209.8C78.8247 212.787 73.5767 214.28 67.006 214.28ZM69.822 205.192C75.2833 205.192 79.7633 203.827 83.262 201.096C86.7607 198.365 88.51 194.867 88.51 190.6V180.616H67.006C63.166 180.616 60.1367 181.683 57.918 183.816C55.6993 185.949 54.59 188.851 54.59 192.52C54.59 196.445 55.9127 199.56 58.558 201.864C61.2887 204.083 65.0433 205.192 69.822 205.192ZM142.092 213L118.54 142.6H130.316L145.932 189.96C146.871 192.776 147.724 195.507 148.492 198.152C149.26 200.712 149.815 202.717 150.156 204.168C150.583 202.717 151.18 200.712 151.948 198.152C152.716 195.507 153.527 192.776 154.38 189.96L169.612 142.6H181.26L157.708 213H142.092ZM226.65 214.28C221.103 214.28 216.239 213.171 212.058 210.952C207.962 208.733 204.762 205.619 202.458 201.608C200.239 197.512 199.13 192.776 199.13 187.4V168.2C199.13 162.739 200.239 158.003 202.458 153.992C204.762 149.981 207.962 146.867 212.058 144.648C216.239 142.429 221.103 141.32 226.65 141.32C232.197 141.32 237.018 142.429 241.114 144.648C245.295 146.867 248.495 149.981 250.714 153.992C253.018 158.003 254.17 162.739 254.17 168.2V180.616H210.394V187.4C210.394 192.947 211.802 197.213 214.618 200.2C217.434 203.101 221.445 204.552 226.65 204.552C231.087 204.552 234.671 203.784 237.402 202.248C240.133 200.627 241.797 198.237 242.394 195.08H253.914C253.146 200.968 250.245 205.661 245.21 209.16C240.261 212.573 234.074 214.28 226.65 214.28ZM242.906 172.936V168.2C242.906 162.653 241.498 158.387 238.682 155.4C235.951 152.413 231.941 150.92 226.65 150.92C221.445 150.92 217.434 152.413 214.618 155.4C211.802 158.387 210.394 162.653 210.394 168.2V171.912H243.802L242.906 172.936ZM279.72 213V119.56H291.24V202.504H333.48V213H279.72ZM374.006 214.28C366.582 214.28 360.737 212.403 356.47 208.648C352.203 204.808 350.07 199.645 350.07 193.16C350.07 186.589 352.203 181.427 356.47 177.672C360.737 173.917 366.497 172.04 373.75 172.04H395.51V165C395.51 160.648 394.187 157.32 391.542 155.016C388.982 152.627 385.313 151.432 380.534 151.432C376.353 151.432 372.854 152.328 370.038 154.12C367.222 155.827 365.601 158.173 365.174 161.16H353.654C354.422 155.101 357.281 150.28 362.23 146.696C367.179 143.112 373.366 141.32 380.79 141.32C388.897 141.32 395.297 143.411 399.99 147.592C404.683 151.773 407.03 157.448 407.03 164.616V213H395.766V199.56H393.846L395.766 197.64C395.766 202.76 393.761 206.813 389.75 209.8C385.825 212.787 380.577 214.28 374.006 214.28ZM376.822 205.192C382.283 205.192 386.763 203.827 390.262 201.096C393.761 198.365 395.51 194.867 395.51 190.6V180.616H374.006C370.166 180.616 367.137 181.683 364.918 183.816C362.699 185.949 361.59 188.851 361.59 192.52C361.59 196.445 362.913 199.56 365.558 201.864C368.289 204.083 372.043 205.192 376.822 205.192ZM460.996 214.28C455.193 214.28 450.543 212.744 447.044 209.672C443.545 206.515 441.796 202.248 441.796 196.872L444.1 199.56H441.796V213H430.276V119.56H441.796V140.04L441.54 156.04H444.1L441.796 158.728C441.796 153.437 443.545 149.213 447.044 146.056C450.628 142.899 455.279 141.32 460.996 141.32C468.079 141.32 473.753 143.667 478.02 148.36C482.287 153.053 484.42 159.453 484.42 167.56V188.168C484.42 196.189 482.287 202.547 478.02 207.24C473.753 211.933 468.079 214.28 460.996 214.28ZM457.156 204.296C462.02 204.296 465.86 202.845 468.676 199.944C471.492 197.043 472.9 192.861 472.9 187.4V168.2C472.9 162.739 471.492 158.557 468.676 155.656C465.86 152.755 462.02 151.304 457.156 151.304C452.463 151.304 448.708 152.797 445.892 155.784C443.161 158.771 441.796 162.909 441.796 168.2V187.4C441.796 192.691 443.161 196.829 445.892 199.816C448.708 202.803 452.463 204.296 457.156 204.296Z" fill="#52FF00"/>
<path d="M509.952 344L499.2 250.56H510.208L517.248 319.68C517.419 321.557 517.589 323.52 517.76 325.568C517.931 327.531 518.059 329.408 518.144 331.2C518.315 332.992 518.4 334.485 518.4 335.68C518.571 334.485 518.699 332.992 518.784 331.2C518.955 329.408 519.125 327.531 519.296 325.568C519.552 323.52 519.808 321.557 520.064 319.68L528.768 250.56H540.672L548.608 319.68C548.864 321.557 549.077 323.52 549.248 325.568C549.504 327.531 549.717 329.408 549.888 331.2C550.144 332.992 550.315 334.485 550.4 335.68C550.485 334.485 550.571 332.992 550.656 331.2C550.827 329.408 550.997 327.531 551.168 325.568C551.424 323.52 551.637 321.557 551.808 319.68L559.104 250.56H569.6L558.592 344H544.128L536.192 273.6C536.021 271.637 535.808 269.717 535.552 267.84C535.381 265.963 535.211 264.213 535.04 262.592C534.869 260.971 534.741 259.648 534.656 258.624C534.571 259.648 534.4 260.971 534.144 262.592C533.973 264.213 533.803 265.963 533.632 267.84C533.461 269.717 533.248 271.637 532.992 273.6L524.416 344H509.952ZM605.006 345.28C597.582 345.28 591.737 343.403 587.47 339.648C583.203 335.808 581.07 330.645 581.07 324.16C581.07 317.589 583.203 312.427 587.47 308.672C591.737 304.917 597.497 303.04 604.75 303.04H626.51V296C626.51 291.648 625.187 288.32 622.542 286.016C619.982 283.627 616.313 282.432 611.534 282.432C607.353 282.432 603.854 283.328 601.038 285.12C598.222 286.827 596.601 289.173 596.174 292.16H584.654C585.422 286.101 588.281 281.28 593.23 277.696C598.179 274.112 604.366 272.32 611.79 272.32C619.897 272.32 626.297 274.411 630.99 278.592C635.683 282.773 638.03 288.448 638.03 295.616V344H626.766V330.56H624.846L626.766 328.64C626.766 333.76 624.761 337.813 620.75 340.8C616.825 343.787 611.577 345.28 605.006 345.28ZM607.822 336.192C613.283 336.192 617.763 334.827 621.262 332.096C624.761 329.365 626.51 325.867 626.51 321.6V311.616H605.006C601.166 311.616 598.137 312.683 595.918 314.816C593.699 316.949 592.59 319.851 592.59 323.52C592.59 327.445 593.913 330.56 596.558 332.864C599.289 335.083 603.043 336.192 607.822 336.192ZM680.092 344L656.54 273.6H668.316L683.932 320.96C684.871 323.776 685.724 326.507 686.492 329.152C687.26 331.712 687.815 333.717 688.156 335.168C688.583 333.717 689.18 331.712 689.948 329.152C690.716 326.507 691.527 323.776 692.38 320.96L707.612 273.6H719.26L695.708 344H680.092ZM764.65 345.28C759.103 345.28 754.239 344.171 750.058 341.952C745.962 339.733 742.762 336.619 740.458 332.608C738.239 328.512 737.13 323.776 737.13 318.4V299.2C737.13 293.739 738.239 289.003 740.458 284.992C742.762 280.981 745.962 277.867 750.058 275.648C754.239 273.429 759.103 272.32 764.65 272.32C770.197 272.32 775.018 273.429 779.114 275.648C783.295 277.867 786.495 280.981 788.714 284.992C791.018 289.003 792.17 293.739 792.17 299.2V311.616H748.394V318.4C748.394 323.947 749.802 328.213 752.618 331.2C755.434 334.101 759.445 335.552 764.65 335.552C769.087 335.552 772.671 334.784 775.402 333.248C778.133 331.627 779.797 329.237 780.394 326.08H791.914C791.146 331.968 788.245 336.661 783.21 340.16C778.261 343.573 772.074 345.28 764.65 345.28ZM780.906 303.936V299.2C780.906 293.653 779.498 289.387 776.682 286.4C773.951 283.413 769.941 281.92 764.65 281.92C759.445 281.92 755.434 283.413 752.618 286.4C749.802 289.387 748.394 293.653 748.394 299.2V302.912H781.802L780.906 303.936ZM817.72 344V250.56H829.24V333.504H871.48V344H817.72ZM912.006 345.28C904.582 345.28 898.737 343.403 894.47 339.648C890.203 335.808 888.07 330.645 888.07 324.16C888.07 317.589 890.203 312.427 894.47 308.672C898.737 304.917 904.497 303.04 911.75 303.04H933.51V296C933.51 291.648 932.187 288.32 929.542 286.016C926.982 283.627 923.313 282.432 918.534 282.432C914.353 282.432 910.854 283.328 908.038 285.12C905.222 286.827 903.601 289.173 903.174 292.16H891.654C892.422 286.101 895.281 281.28 900.23 277.696C905.179 274.112 911.366 272.32 918.79 272.32C926.897 272.32 933.297 274.411 937.99 278.592C942.683 282.773 945.03 288.448 945.03 295.616V344H933.766V330.56H931.846L933.766 328.64C933.766 333.76 931.761 337.813 927.75 340.8C923.825 343.787 918.577 345.28 912.006 345.28ZM914.822 336.192C920.283 336.192 924.763 334.827 928.262 332.096C931.761 329.365 933.51 325.867 933.51 321.6V311.616H912.006C908.166 311.616 905.137 312.683 902.918 314.816C900.699 316.949 899.59 319.851 899.59 323.52C899.59 327.445 900.913 330.56 903.558 332.864C906.289 335.083 910.043 336.192 914.822 336.192ZM998.996 345.28C993.193 345.28 988.543 343.744 985.044 340.672C981.545 337.515 979.796 333.248 979.796 327.872L982.1 330.56H979.796V344H968.276V250.56H979.796V271.04L979.54 287.04H982.1L979.796 289.728C979.796 284.437 981.545 280.213 985.044 277.056C988.628 273.899 993.279 272.32 998.996 272.32C1006.08 272.32 1011.75 274.667 1016.02 279.36C1020.29 284.053 1022.42 290.453 1022.42 298.56V319.168C1022.42 327.189 1020.29 333.547 1016.02 338.24C1011.75 342.933 1006.08 345.28 998.996 345.28ZM995.156 335.296C1000.02 335.296 1003.86 333.845 1006.68 330.944C1009.49 328.043 1010.9 323.861 1010.9 318.4V299.2C1010.9 293.739 1009.49 289.557 1006.68 286.656C1003.86 283.755 1000.02 282.304 995.156 282.304C990.463 282.304 986.708 283.797 983.892 286.784C981.161 289.771 979.796 293.909 979.796 299.2V318.4C979.796 323.691 981.161 327.829 983.892 330.816C986.708 333.803 990.463 335.296 995.156 335.296Z" fill="#52FF00"/>
</g>
<defs>
<linearGradient id="paint0_linear_16_15" x1="49.5" y1="-301.5" x2="2486" y2="773.5" gradientUnits="userSpaceOnUse">
<stop stop-color="#140015"/>
<stop offset="1" stop-color="#000423"/>
</linearGradient>
<clipPath id="clip0_16_15">
<rect width="2500" height="350" fill="white"/>
</clipPath>
</defs>
</svg>
